<?xml version="1.0" encoding="UTF-8"?>
<!DOCTYPE svg  PUBLIC '-//W3C//DTD SVG 1.1//EN'  'http://www.w3.org/Graphics/SVG/1.1/DTD/svg11.dtd'>
<svg width="215.9mm" height="279.4mm" clip-rule="evenodd" fill-rule="evenodd" image-rendering="optimizeQuality" shape-rendering="geometricPrecision" text-rendering="geometricPrecision" viewBox="0 0 215.9 279.4" xml:space="preserve" xmlns="http://www.w3.org/2000/svg">
 <defs>
  <style type="text/css">
   <![CDATA[
    .str0 {stroke:#1F1A17;stroke-width:0.2}
    .fil6 {fill:none}
    .fil10 {fill:#1F1A17}
    .fil3 {fill:#3F4446}
    .fil12 {fill:#605D5C}
    .fil2 {fill:#75C5F0}
    .fil5 {fill:#96AEBE}
    .fil4 {fill:#AAA9A9}
    .fil0 {fill:#BB825B}
    .fil15 {fill:#DA251D}
    .fil11 {fill:#DEDEDD}
    .fil16 {fill:#EF9BA0}
    .fil1 {fill:white}
    .fil13 {fill:#16ACAD}
    .fil8 {fill:#F8CFB5}
    .fil14 {fill:#FAD9C4}
    .fil7 {fill:#1F1A17;fill-rule:nonzero}
    .fil9 {fill:#FFFCC8;fill-rule:nonzero}
   ]]>
  </style>
 </defs>
  <path class="fil0" d="m138.15 36.276c12.073 0 21.864 9.7906 21.864 21.863 0 6.8308-3.135 12.93-8.0434 16.94 1.3793 4.6636 2.1183 9.5869 2.1183 14.676 0 29.531-24.867 53.48-55.531 53.48s-55.531-23.948-55.531-53.48c0-2.5827 0.1943-5.1217 0.562-7.6069-6.3937-3.8156-10.678-10.802-10.678-18.787 0-12.073 9.7906-21.863 21.863-21.863 4.6945 0 9.0435 1.4809 12.606 3.9999 8.8889-5.8195 19.62-9.2221 31.176-9.2221 8.9541 0 17.412 2.0447 24.902 5.6716 3.8819-3.5239 9.0356-5.6716 14.69-5.6716z"/>
  <path class="fil1 str0" d="m81.125 150.85c3.663-1.0484 7.3259-1.7767 10.989-2.1639v14.286h14.303v-14.015c2.8024 0.4116 5.605 1.0395 8.4073 1.8933l11.42 86.153 9.3765 15.781-78.952-0.0169 12.45-17.814 12.006-84.103z"/>
  <polygon class="fil1 str0" points="70.896 244.51 86.813 244.51 86.674 252.78 71.034 252.77"/>
  <polygon class="fil2 str0" points="92.114 150.27 99.266 162.98 106.42 150.27 106.42 252.78 92.114 252.78"/>
  <path class="fil3 str0" d="m99.368 186.16c2.1843 0 3.9559 1.7716 3.9559 3.9562 0 2.1843-1.7716 3.9559-3.9559 3.9559-2.1846 0-3.9561-1.7716-3.9561-3.9559 0-2.1846 1.7715-3.9562 3.9561-3.9562z"/>
   <polygon class="fil4 str0" points="73.466 191.25 87.533 197.08 81.448 204.86 67.38 199.03"/>
   <polygon class="fil5 str0" points="65.449 191.94 92.792 203.27 73.387 250.1 46.044 238.77"/>
   <polygon class="fil1 str0" points="66.291 194.9 88.609 204.14 71.124 246.34 48.805 237.1"/>
   <path class="fil1 str0" d="m67.17 195.14l22.318 9.2472-17.486 42.202c-7.3033-1.6262-13.819-6.4918-21.51-7.565l16.677-43.884z"/>
   <polygon class="fil4 str0" points="73.661 191.33 87.728 197.16 84.086 205.95 70.018 200.12"/>
  <polygon class="fil6 str0" points="56.036 231.25 59.08 232.6 57.478 236.22 54.434 234.88"/>
  <polygon class="fil6 str0" points="71.909 221.52 74.953 222.87 73.352 226.49 70.307 225.14"/>
  <path class="fil7" d="m67.875 203.66l0.7818-1.6973 0.5845 0.2692c0.132 0.0608 0.2289 0.1156 0.2911 0.1638 0.0869 0.067 0.1512 0.1459 0.193 0.2361 0.0544 0.1169 0.0771 0.2444 0.0672 0.3824-0.0096 0.1384-0.0494 0.2829-0.1191 0.4342-0.0594 0.1289-0.127 0.2362-0.2033 0.3218-0.0759 0.0857-0.1523 0.1506-0.2297 0.194-0.0771 0.0435-0.1521 0.0713-0.2254 0.0826-0.073 0.0118-0.1537 0.0091-0.2416-0.0079-0.0883-0.0172-0.1836-0.0496-0.286-0.0967l-0.6125-0.2822zm0.3168-0.0969l0.3623 0.1668c0.1119 0.0516 0.2047 0.0819 0.278 0.0902 0.0733 0.0085 0.1373 0.0025 0.1928-0.018 0.0777-0.0284 0.1523-0.0812 0.2232-0.1572 0.0712-0.0764 0.1363-0.1782 0.1955-0.3066 0.0817-0.1774 0.1152-0.3272 0.101-0.4493-0.0144-0.1226-0.0559-0.2187-0.1243-0.2896-0.0493-0.051-0.1412-0.1072-0.2744-0.1685l-0.3569-0.1644-0.5972 1.2966zm1.3667 0.8724l0.5662-1.2294 0.1873 0.0863-0.0857 0.1861c0.0879-0.0649 0.1588-0.1023 0.2122-0.1111 0.053-0.0092 0.1042-0.0028 0.1529 0.0196 0.0703 0.0324 0.131 0.0877 0.1832 0.1658l-0.1611 0.1605c-0.0366-0.0537-0.0807-0.0922-0.1317-0.1157-0.0458-0.0211-0.0928-0.026-0.1418-0.0155-0.0491 0.0109-0.0923 0.0371-0.13 0.0786-0.0574 0.0631-0.1061 0.1388-0.1467 0.2269l-0.2966 0.6438-0.2082-0.0959zm0.7199 0.3316l0.1095-0.2375 0.2375 0.1094-0.1094 0.2375-0.2376-0.1094zm0.9679 0.4458l1.4339-1.3969 0.2418 0.1114-0.0871 2.0173-0.2561-0.1179 0.0388-0.6053-0.7097-0.327-0.4229 0.4284-0.2387-0.11zm0.8108-0.4715l0.5757 0.2652 0.039-0.5516c0.0119-0.1674 0.0257-0.3033 0.0421-0.4074-0.072 0.099-0.1522 0.1929-0.2412 0.2821l-0.4156 0.4117zm0.926 1.2716l0.7818-1.6973 0.2083 0.0959-0.7818 1.6973-0.2083-0.0959zm1.5553 0.2364l0.2031 0.1257c-0.092 0.1104-0.1999 0.1791-0.3235 0.2064-0.124 0.0267-0.2574 0.0075-0.4001-0.0583-0.1798-0.0828-0.2969-0.2039-0.351-0.3629-0.0546-0.1593-0.0356-0.3388 0.0565-0.5387 0.0953-0.2071 0.2227-0.343 0.3815-0.4082 0.1593-0.065 0.3236-0.0588 0.4936 0.0195 0.1644 0.0757 0.2729 0.1936 0.3252 0.3534 0.0529 0.1599 0.0324 0.3415-0.061 0.5443-0.0058 0.0126-0.0147 0.031-0.0268 0.0551l-0.9168-0.4223c-0.0547 0.1386-0.0641 0.2598-0.0283 0.3631 0.0356 0.1036 0.1044 0.1789 0.2071 0.2262 0.0763 0.0351 0.1508 0.045 0.2235 0.0296 0.0725-0.0149 0.1447-0.0593 0.217-0.1329zm-0.5288-0.6522l0.6864 0.3162c0.0384-0.1073 0.0477-0.1973 0.0284-0.2686-0.0295-0.1108-0.097-0.1908-0.2026-0.2394-0.0956-0.044-0.1909-0.0492-0.2856-0.0152s-0.1702 0.1032-0.2266 0.207zm1.493-0.1879l0.1114-0.2419 0.2083 0.096-0.1115 0.2418-0.2082-0.0959zm-1.1541 1.8108l0.1206-0.1591c0.037 0.03 0.0673 0.0507 0.091 0.0617 0.0427 0.0196 0.0808 0.0199 0.1143 0.0013 0.0338-0.0184 0.0771-0.0843 0.129-0.1969l0.595-1.2917 0.2083 0.0959-0.5972 1.2966c-0.0697 0.1513-0.1379 0.2473-0.2046 0.2889-0.0856 0.054-0.1868 0.0543-0.3035 6e-4 -0.0565-0.026-0.1075-0.0587-0.1529-0.0973zm1.8837 0.1056c-0.1077 0.03-0.2033 0.042-0.287 0.0365-0.0838-0.0061-0.1667-0.028-0.2485-0.0657-0.1352-0.0622-0.2236-0.1428-0.2658-0.2422-0.042-0.0994-0.0394-0.2007 0.0078-0.303 0.0278-0.0604 0.0665-0.1092 0.1172-0.1462 0.0502-0.0373 0.1045-0.0606 0.1626-0.0703 0.0585-0.0094 0.1188-0.0094 0.1816 8e-4 0.0456 0.0081 0.1122 0.0259 0.1994 0.054 0.1776 0.0574 0.3126 0.0908 0.405 0.0994 0.0138-0.0281 0.0226-0.0461 0.0261-0.0536 0.0391-0.0849 0.047-0.1542 0.0233-0.2067-0.0311-0.0718-0.0997-0.1317-0.2044-0.18-0.098-0.0451-0.1783-0.0615-0.2411-0.0487-0.0625 0.0129-0.1248 0.0579-0.1876 0.1349l-0.1906-0.1218c0.0586-0.0784 0.1217-0.1351 0.1885-0.1691 0.067-0.0342 0.1477-0.0473 0.2413-0.0392 0.0935 0.0082 0.1931 0.0363 0.299 0.0851 0.1051 0.0484 0.1842 0.1002 0.2385 0.1549 0.0542 0.0551 0.0882 0.1081 0.1022 0.16 0.0134 0.0518 0.0131 0.1087-5e-4 0.1718-0.0097 0.0387-0.0357 0.1043-0.0783 0.1968l-0.128 0.2778c-0.0893 0.194-0.1414 0.3186-0.1558 0.3737-0.015 0.0553-0.02 0.1129-0.0156 0.172l-0.2177-0.1003c-0.0015-0.0529 0.0076-0.1101 0.0284-0.1709zm0.1971-0.4735c-0.0903-0.0037-0.2157-0.0299-0.3766-0.0777-0.0915-0.0273-0.1587-0.0415-0.201-0.0423-0.0426-9e-4 -0.0807 0.0089-0.1135 0.0301-0.033 0.0208-0.058 0.049-0.0748 0.0854-0.0256 0.0557-0.0256 0.1118-8e-4 0.1682 0.025 0.056 0.078 0.103 0.159 0.1404 0.0802 0.0369 0.1599 0.0524 0.2384 0.046 0.0787-0.0063 0.1472-0.0333 0.2044-0.0807 0.0442-0.0366 0.0874-0.1011 0.1296-0.1927l0.0353-0.0767zm0.2496 0.8632l0.5662-1.2294 0.1873 0.0863-0.0804 0.1747c0.1528-0.0935 0.3142-0.101 0.4846-0.0225 0.0743 0.0342 0.1361 0.0789 0.1859 0.1339 0.05 0.0557 0.0803 0.1118 0.0911 0.1694 0.0113 0.0575 9e-3 0.1186-0.0056 0.1838-0.0104 0.0421-0.0375 0.1115-0.0819 0.208l-0.3482 0.756-0.2087-0.0961 0.3446-0.7481c0.039-0.0846 0.0604-0.1519 0.0636-0.2016 0.0031-0.0493-0.0103-0.0962-0.0399-0.14-0.0298-0.0445-0.0722-0.0793-0.1279-0.105-0.0889-0.0409-0.1783-0.0476-0.269-0.0214-0.0905 0.0269-0.1716 0.1188-0.2442 0.2765l-0.3093 0.6714-0.2082-0.0959zm2.1161 0.9748l0.0716-0.1553c-0.1341 0.0863-0.2768 0.0943-0.4281 0.0246-0.098-0.0451-0.1757-0.1135-0.233-0.2055-0.0574-0.0916-0.0863-0.1965-0.087-0.3146-4e-4 -0.1175 0.0282-0.239 0.0863-0.3651 0.0564-0.1225 0.1283-0.2245 0.215-0.3056 0.0872-0.0811 0.1837-0.1295 0.29-0.1448 0.1063-0.0157 0.2104-3e-4 0.3116 0.0463 0.0738 0.034 0.1326 0.0803 0.1759 0.138 0.0437 0.058 0.0719 0.1203 0.0852 0.1873l0.2806-0.609 0.207 0.0954-0.7819 1.6973-0.1932-0.089zm-0.376-0.9172c-0.0727 0.1577-0.0937 0.2908-0.0632 0.3992s0.0908 0.1836 0.1812 0.2253c0.0909 0.0419 0.1857 0.0399 0.2835-0.0051 0.0979-0.0449 0.1823-0.144 0.2527-0.2969 0.0776-0.1684 0.102-0.3066 0.0734-0.415-0.0284-0.1089-0.0902-0.1849-0.1854-0.2287-0.0925-0.0426-0.1874-0.0403-0.2842 0.0066s-0.1831 0.1518-0.258 0.3146zm0.8949 1.1562l0.5663-1.2293 0.1873 0.0862-0.0857 0.1861c0.0879-0.0648 0.1587-0.1022 0.2121-0.1111 0.0531-0.0091 0.1042-0.0028 0.1529 0.0197 0.0703 0.0324 0.1311 0.0876 0.1833 0.1657l-0.1612 0.1606c-0.0365-0.0538-0.0806-0.0922-0.1316-0.1158-0.0458-0.021-0.0929-0.026-0.1418-0.0155-0.0491 0.011-0.0923 0.0371-0.1301 0.0786-0.0573 0.0631-0.1061 0.1388-0.1467 0.2269l-0.2965 0.6438-0.2083-0.0959zm1.664 0.5825c-0.1077 0.03-0.2033 0.042-0.2869 0.0365-0.0839-6e-3 -0.1668-0.0279-0.2486-0.0656-0.1351-0.0623-0.2235-0.1428-0.2658-0.2422-0.042-0.0994-0.0394-0.2007 0.0078-0.3031 0.0278-0.0604 0.0665-0.1091 0.1172-0.1461 0.0502-0.0374 0.1045-0.0607 0.1626-0.0704 0.0585-0.0093 0.1189-0.0094 0.1816 9e-4 0.0456 8e-3 0.1122 0.0258 0.1994 0.054 0.1776 0.0573 0.3126 0.0908 0.405 0.0993 0.0138-0.0281 0.0226-0.046 0.0261-0.0536 0.0391-0.0849 0.047-0.1541 0.0233-0.2067-0.0311-0.0718-0.0997-0.1317-0.2044-0.1799-0.098-0.0452-0.1782-0.0615-0.2411-0.0487-0.0625 0.0128-0.1248 0.0578-0.1876 0.1348l-0.1906-0.1218c0.0586-0.0783 0.1217-0.1351 0.1885-0.169 0.0671-0.0342 0.1478-0.0473 0.2413-0.0392s0.1931 0.0362 0.299 0.085c0.1052 0.0485 0.1843 0.1002 0.2385 0.155 0.0542 0.0551 0.0882 0.1081 0.1022 0.16 0.0134 0.0517 0.0131 0.1086-5e-4 0.1717-0.0097 0.0387-0.0357 0.1044-0.0783 0.1968l-0.1279 0.2779c-0.0894 0.194-0.1415 0.3185-0.1559 0.3736-0.015 0.0553-0.0199 0.113-0.0155 0.172l-0.2178-0.1003c-0.0015-0.0529 0.0076-0.11 0.0284-0.1709zm0.1971-0.4735c-0.0903-0.0037-0.2157-0.0298-0.3766-0.0777-0.0915-0.0272-0.1587-0.0415-0.201-0.0422-0.0426-9e-4 -0.0807 0.0088-0.1135 0.0301-0.033 0.0208-0.058 0.049-0.0747 0.0853-0.0257 0.0558-0.0257 0.1118-9e-4 0.1683 0.025 0.056 0.078 0.103 0.1591 0.1403 0.0802 0.037 0.1598 0.0525 0.2384 0.0461s0.1471-0.0333 0.2044-0.0807c0.0442-0.0367 0.0873-0.1011 0.1295-0.1928l0.0353-0.0767zm1.0421 0.6444l0.2155 0.0657c-0.0546 0.132-0.0711 0.2322-0.05 0.2998 0.0214 0.0679 0.0702 0.1191 0.1465 0.1542 0.0565 0.0261 0.1109 0.0358 0.1636 0.0284 0.0529-0.0067 0.0972-0.029 0.133-0.0661 0.036-0.0376 0.0765-0.1046 0.1213-0.2019l0.5386-1.1693 0.2244 0.1034-0.5328 1.1567c-0.0653 0.1418-0.1331 0.2443-0.2034 0.3063-0.0702 0.062-0.1521 0.0961-0.2452 0.103-0.0935 0.0063-0.1903-0.0133-0.2906-0.0595-0.1491-0.0687-0.2432-0.1638-0.2831-0.2861-0.0395-0.1222-0.0188-0.267 0.0622-0.4346zm1.1107 1.0955l0.1094-0.2375 0.2375 0.1094-0.1094 0.2375-0.2375-0.1094z"/>
  <path class="fil7" d="m66.608 207.59l0.6339-1.3762 0.519 0.2391c0.0914 0.0421 0.1592 0.0788 0.2033 0.1095 0.0624 0.0424 0.1092 0.0899 0.1404 0.1428 0.0311 0.0524 0.0474 0.1138 0.0491 0.1834 0.0016 0.0699-0.0134 0.1388-0.0448 0.207-0.0539 0.1169-0.1368 0.1991-0.2485 0.246-0.1119 0.0463-0.2651 0.025-0.4596-0.0645l-0.3531-0.1627-0.2577 0.5594-0.182-0.0838zm0.5145-0.6381l0.356 0.164c0.1176 0.0541 0.2113 0.0709 0.2808 0.0497 0.0695-0.0211 0.1226-0.0713 0.1592-0.1507 0.0266-0.0577 0.0349-0.1137 0.0246-0.1681-0.0103-0.0545-0.036-0.099-0.0776-0.1341-0.0272-0.0222-0.0816-0.0523-0.1643-0.0904l-0.3521-0.1622-0.2266 0.4918zm1.4534 1.3954c-0.0872 0.0243-0.1648 0.034-0.2326 0.0296-0.0681-5e-3 -0.1352-0.0227-0.2016-0.0533-0.1095-0.0504-0.1812-0.1157-0.2155-0.1963-0.034-0.0806-0.0319-0.1627 0.0064-0.2457 0.0225-0.049 0.0539-0.0886 0.0949-0.1186 0.0408-0.0302 0.0848-0.0491 0.1319-0.0569 0.0475-0.0077 0.0964-0.0077 0.1472 7e-4 0.0371 0.0065 0.091 0.0208 0.1617 0.0437 0.144 0.0465 0.2535 0.0736 0.3284 0.0806 0.0112-0.0228 0.0183-0.0374 0.0211-0.0435 0.0317-0.0689 0.0382-0.125 0.019-0.1676-0.0252-0.0582-0.0809-0.1067-0.1658-0.1459-0.0795-0.0366-0.1445-0.0499-0.1954-0.0395-0.0507 0.0104-0.1013 0.0469-0.1522 0.1093l-0.1545-0.0987c0.0475-0.0636 0.0986-0.1096 0.1528-0.137 0.0544-0.0278 0.1198-0.0384 0.1956-0.0319 0.0759 0.0066 0.1566 0.0294 0.2425 0.069 0.0852 0.0393 0.1494 0.0813 0.1934 0.1256 0.0439 0.0447 0.0715 0.0877 0.0828 0.1298 0.011 0.0419 0.0107 0.0881-5e-4 0.1392-0.0078 0.0313-0.0288 0.0845-0.0634 0.1596l-0.1037 0.2252c-0.0725 0.1573-0.1147 0.2583-0.1264 0.303-0.0121 0.0449-0.0162 0.0916-0.0126 0.1395l-0.1765-0.0813c-0.0012-0.043 0.0061-0.0893 0.023-0.1386zm0.1598-0.3839c-0.0731-0.0031-0.1749-0.0243-0.3053-0.063-0.0742-0.0221-0.1287-0.0336-0.163-0.0342-0.0346-9e-4 -0.0654 7e-3 -0.092 0.0243-0.0268 0.0168-0.047 0.0398-0.0606 0.0692-0.0208 0.0452-0.0208 0.0907-7e-4 0.1364 0.0202 0.0454 0.0633 0.0836 0.129 0.1138 0.065 0.03 0.1295 0.0426 0.1933 0.0374 0.0637-0.0052 0.1192-0.0271 0.1657-0.0655 0.0358-0.0297 0.0707-0.0819 0.105-0.1563l0.0286-0.0621zm1.021 0.6342l0.1559 0.0982c-0.0706 0.1062-0.1584 0.1744-0.2631 0.2047-0.1045 0.0303-0.2113 0.0203-0.3203-0.0299-0.1362-0.0627-0.2256-0.1578-0.2672-0.285-0.042-0.1273-0.0248-0.2743 0.052-0.441 0.0496-0.1076 0.1109-0.1935 0.1837-0.2579 0.0731-0.0642 0.1552-0.0998 0.2468-0.1065 0.0913-0.0069 0.1801 0.0095 0.2656 0.0489 0.1083 0.0499 0.1844 0.1183 0.2277 0.2047 0.0437 0.0866 0.0521 0.1845 0.0252 0.2944l-0.176-0.0505c0.0151-0.0741 0.0108-0.1371-0.0133-0.1894-0.0243-0.0519-0.0645-0.091-0.1209-0.117-0.0853-0.0393-0.1685-0.0408-0.2498-4e-3 -0.0813 0.0363-0.1523 0.1205-0.2131 0.2525-0.0617 0.134-0.0809 0.2432-0.0574 0.3279 0.0234 0.0841 0.0763 0.1453 0.159 0.1834 0.0664 0.0306 0.1308 0.0355 0.1942 0.0154 0.0632-0.0202 0.1202-0.0697 0.171-0.1489zm0.6875-0.6729l0.0896-0.1945 0.1692 0.078-0.0896 0.1944-0.1692-0.0779zm-0.5443 1.1816l0.4592-0.9968 0.1692 0.078-0.4592 0.9968-0.1692-0.078zm1.2565 0.1896l0.1647 0.102c-0.0746 0.0895-0.162 0.1451-0.2624 0.1673-0.1005 0.0217-0.2085 0.0061-0.3242-0.0472-0.1458-0.0672-0.2408-0.1653-0.2847-0.2943-0.0443-0.1291-0.0289-0.2747 0.0458-0.4368 0.0773-0.1679 0.1805-0.2781 0.3094-0.331 0.1292-0.0527 0.2624-0.0476 0.4002 0.0158 0.1332 0.0614 0.2212 0.1571 0.2637 0.2865 0.0428 0.1298 0.0262 0.277-0.0495 0.4414-0.0048 0.0103-0.0119 0.0251-0.0217 0.0447l-0.7434-0.3424c-0.0444 0.1125-0.052 0.2107-0.0229 0.2943 0.0289 0.084 0.0846 0.145 0.168 0.1834 0.0618 0.0285 0.1222 0.0366 0.1811 0.0241 0.0588-0.0122 0.1173-0.0481 0.1759-0.1078zm-0.4287-0.5288l0.5565 0.2564c0.0311-0.0871 0.0387-0.16 0.0231-0.2177-0.0239-0.0899-0.0787-0.1547-0.1643-0.1941-0.0776-0.0358-0.1548-0.0399-0.2316-0.0124-0.0769 0.0276-0.138 0.0836-0.1837 0.1678zm0.6679 1.0282l0.4591-0.9968 0.1519 0.0699-0.0653 0.1417c0.1239-0.0758 0.2549-0.0819 0.3929-0.0183 0.0603 0.0278 0.1104 0.064 0.1508 0.1087 0.0406 0.0451 0.0651 0.0906 0.0739 0.1374 0.0092 0.0465 0.0073 0.0962-0.0046 0.1489-0.0083 0.0343-0.0304 0.0905-0.0664 0.1687l-0.2823 0.6129-0.1693-0.0779 0.2794-0.6066c0.0316-0.0686 0.049-0.1231 0.0516-0.1634 0.0025-0.04-0.0083-0.078-0.0323-0.1135-0.0242-0.036-0.0586-0.0643-0.1037-0.0851-0.0721-0.0333-0.1446-0.0387-0.2181-0.0174-0.0733 0.0218-0.1391 0.0964-0.198 0.2242l-0.2508 0.5444-0.1688-0.0778zm1.5076 0.5112l-0.0444 0.1605c-0.052-0.012-0.097-0.0264-0.1345-0.0437-0.0615-0.0283-0.1045-0.0598-0.1294-0.0949-0.0248-0.0348-0.0367-0.0713-0.0359-0.1094 7e-4 -0.0378 0.0244-0.1076 0.071-0.2089l0.2642-0.5735-0.1241-0.0572 0.0606-0.1314 0.124 0.0572 0.1138-0.247 0.2149-0.0238-0.1604 0.3483 0.1697 0.0782-0.0605 0.1314-0.1698-0.0782-0.2685 0.5828c-0.0222 0.0483-0.0336 0.0804-0.0341 0.0969-3e-4 0.0165 0.0043 0.0319 0.0139 0.0464 0.0098 0.0142 0.0271 0.0272 0.0521 0.0387 0.0189 0.0088 0.0446 0.0179 0.0774 0.0276zm0.9257 0.2205l0.1648 0.102c-0.0746 0.0895-0.162 0.1451-0.2624 0.1673-0.1005 0.0217-0.2085 0.0061-0.3243-0.0473-0.1457-0.0671-0.2407-0.1652-0.2846-0.2943-0.0443-0.129-0.0289-0.2746 0.0458-0.4367 0.0773-0.1679 0.1805-0.2781 0.3093-0.331 0.1293-0.0527 0.2625-0.0477 0.4002 0.0158 0.1333 0.0614 0.2213 0.1571 0.2638 0.2865 0.0428 0.1298 0.0262 0.277-0.0495 0.4414-0.0048 0.0103-0.0119 0.0251-0.0217 0.0447l-0.7434-0.3424c-0.0444 0.1125-0.052 0.2107-0.0229 0.2943 0.0289 0.084 0.0846 0.145 0.168 0.1834 0.0618 0.0285 0.1222 0.0366 0.1811 0.0241 0.0588-0.0122 0.1173-0.0481 0.1758-0.1078zm-0.4287-0.5288l0.5566 0.2564c0.0311-0.0871 0.0387-0.16 0.023-0.2177-0.0239-0.0899-0.0786-0.1547-0.1642-0.1942-0.0776-0.0357-0.1548-0.0398-0.2316-0.0123-0.0769 0.0276-0.138 0.0836-0.1838 0.1678zm1.0853 0.2452l0.0886-0.1923 0.1926 0.0887-0.0886 0.1923-0.1926-0.0887zm-0.3706 0.8045l0.0887-0.1925 0.1926 0.0887-0.0887 0.1925-0.1926-0.0887z"/>
  <path class="fil7" d="m65.705 209.3l0.1747 0.0533c-0.0442 0.107-0.0576 0.1883-0.0405 0.243 0.0174 0.0551 0.0569 0.0966 0.1188 0.1251 0.0457 0.0211 0.0899 0.029 0.1326 0.023 0.0429-0.0054 0.0789-0.0235 0.1078-0.0536 0.0293-0.0305 0.062-0.0848 0.0983-0.1637l0.4367-0.948 0.1821 0.0838-0.432 0.9378c-0.053 0.1151-0.108 0.1981-0.1649 0.2484s-0.1233 0.078-0.1989 0.0836c-0.0758 5e-3 -0.1543-0.0109-0.2357-0.0484-0.1208-0.0556-0.1971-0.1327-0.2295-0.232-0.032-0.099-0.0153-0.2163 0.0505-0.3523zm1.5061 1.1672l0.0674-0.1464c-0.1298 0.0769-0.261 0.0844-0.3943 0.023-0.0587-0.027-0.1086-0.0637-0.1493-0.1095-0.0406-0.0459-0.0652-0.0918-0.0742-0.1371-0.0092-0.0459-0.0073-0.0954 0.0055-0.1494 0.0085-0.0364 0.0293-0.0906 0.0625-0.1627l0.2844-0.6174 0.1689 0.0777-0.2547 0.5528c-0.0407 0.0884-0.0644 0.1493-0.0719 0.1832-0.0096 0.0495-0.0032 0.0944 0.0193 0.1359 0.023 0.0413 0.0598 0.0733 0.1104 0.0966 0.0507 0.0234 0.104 0.0324 0.1604 0.027 0.0566-0.0054 0.1043-0.0266 0.1431-0.0627 0.0393-0.0363 0.0785-0.097 0.1176-0.182l0.2461-0.5341 0.1688 0.0778-0.4592 0.9968-0.1508-0.0695zm1.123 0.3681c-0.0873 0.0243-0.1649 0.0341-0.2326 0.0296-0.0681-0.0049-0.1353-0.0227-0.2017-0.0532-0.1095-0.0505-0.1812-0.1158-0.2155-0.1964-0.034-0.0805-0.0318-0.1627 0.0064-0.2457 0.0226-0.0489 0.0539-0.0886 0.0949-0.1186 0.0408-0.0302 0.0849-0.0491 0.1319-0.0569 0.0475-0.0076 0.0964-0.0077 0.1473 7e-4 0.037 0.0065 0.091 0.0209 0.1616 0.0437 0.144 0.0465 0.2535 0.0736 0.3284 0.0806 0.0113-0.0228 0.0183-0.0374 0.0211-0.0434 0.0318-0.069 0.0382-0.125 0.019-0.1677-0.0252-0.0582-0.0809-0.1067-0.1658-0.1458-0.0795-0.0366-0.1445-0.0499-0.1954-0.0396-0.0507 0.0104-0.1013 0.0469-0.1522 0.1094l-0.1544-0.0988c0.0474-0.0636 0.0985-0.1095 0.1527-0.137 0.0544-0.0278 0.1199-0.0384 0.1957-0.0318 0.0758 0.0065 0.1565 0.0294 0.2425 0.0689 0.0852 0.0393 0.1494 0.0813 0.1933 0.1257 0.044 0.0446 0.0715 0.0876 0.0829 0.1297 0.0109 0.0419 0.0107 0.0881-6e-4 0.1393-0.0078 0.0313-0.0288 0.0845-0.0633 0.1595l-0.1038 0.2252c-0.0724 0.1574-0.1147 0.2584-0.1263 0.3031-0.0121 0.0448-0.0162 0.0915-0.0126 0.1394l-0.1765-0.0813c-0.0012-0.043 0.0061-0.0892 0.023-0.1386zm0.1597-0.3839c-0.0731-3e-3 -0.1748-0.0243-0.3053-0.063-0.0742-0.022-0.1286-0.0336-0.1629-0.0342-0.0346-9e-4 -0.0655 0.0071-0.092 0.0243-0.0268 0.0169-0.0471 0.0398-0.0607 0.0692-0.0208 0.0453-0.0207 0.0908-7e-4 0.1364 0.0203 0.0455 0.0634 0.0836 0.129 0.1138 0.0651 0.03 0.1296 0.0427 0.1933 0.0374 0.0637-0.0052 0.1193-0.027 0.1657-0.0654 0.0358-0.0298 0.0708-0.0819 0.105-0.1563l0.0286-0.0622zm0.2024 0.6999l0.4592-0.9968 0.1518 0.0699-0.0652 0.1417c0.1239-0.0758 0.2548-0.0819 0.3929-0.0183 0.0603 0.0278 0.1103 0.064 0.1507 0.1087 0.0407 0.0451 0.0651 0.0906 0.0739 0.1374 0.0092 0.0465 0.0074 0.0962-0.0045 0.1489-0.0084 0.0343-0.0305 0.0905-0.0665 0.1687l-0.2823 0.6129-0.1692-0.0779 0.2794-0.6066c0.0316-0.0686 0.049-0.1231 0.0516-0.1634 0.0025-0.04-0.0083-0.078-0.0324-0.1135-0.0241-0.036-0.0586-0.0643-0.1037-0.0851-0.0721-0.0332-0.1446-0.0387-0.218-0.0174-0.0734 0.0218-0.1392 0.0964-0.1981 0.2242l-0.2508 0.5444-0.1688-0.0778zm1.6248 0.7484l0.6339-1.3761 0.5191 0.2391c0.0913 0.0421 0.1591 0.0787 0.2032 0.1095 0.0624 0.0424 0.1092 0.0899 0.1405 0.1428 0.031 0.0523 0.0473 0.1138 0.049 0.1834 0.0016 0.0699-0.0134 0.1387-0.0448 0.207-0.0539 0.1169-0.1367 0.1991-0.2485 0.2459-0.1118 0.0464-0.2651 0.0251-0.4596-0.0645l-0.3531-0.1626-0.2577 0.5594-0.182-0.0839zm0.5146-0.638l0.3559 0.164c0.1176 0.0541 0.2113 0.0709 0.2808 0.0497 0.0696-0.0211 0.1226-0.0713 0.1592-0.1507 0.0266-0.0577 0.0349-0.1138 0.0246-0.1681-0.0102-0.0545-0.036-0.099-0.0776-0.1341-0.0271-0.0222-0.0816-0.0524-0.1643-0.0904l-0.3521-0.1622-0.2265 0.4918zm0.5464 1.1268l0.0887-0.1926 0.1925 0.0887-0.0887 0.1926-0.1925-0.0887zm1.0343 0.4764l0.6339-1.3761 0.1823 0.084-0.5591 1.2136 0.6777 0.3121-0.0749 0.1625-0.8599-0.3961zm1.2219-0.0415c0.085-0.1845 0.1993-0.2977 0.3431-0.339 0.1195-0.0344 0.2411-0.0234 0.3644 0.0334 0.1371 0.0632 0.2286 0.1597 0.2739 0.2897 0.0459 0.1299 0.032 0.2738-0.0409 0.4321-0.0592 0.1284-0.125 0.2205-0.1971 0.2761-0.0724 0.0561-0.1547 0.0873-0.2469 0.0942-0.0925 0.0067-0.1819-0.01-0.269-0.0501-0.1394-0.0643-0.2316-0.1607-0.2765-0.2901-0.045-0.1291-0.0286-0.2777 0.049-0.4463zm0.1737 0.08c-0.0589 0.1278-0.075 0.2362-0.0484 0.3253 0.0264 0.0895 0.0819 0.1535 0.1662 0.1923 0.0839 0.0386 0.1685 0.0388 0.2536 8e-4 0.0848-0.0383 0.1575-0.1229 0.2178-0.2536 0.0568-0.1233 0.072-0.2297 0.0452-0.319-0.0269-0.0892-0.0818-0.153-0.1651-0.1913-0.0843-0.0389-0.169-0.0395-0.2539-2e-3 -0.0848 0.0374-0.1567 0.12-0.2154 0.2475zm0.4865-0.5301l0.246-0.2051 0.2214 0.102-0.3273 0.1676-0.1401-0.0645zm0.0666 1.8522l0.6351-1.3787 0.1538 0.0708-0.0597 0.1295c0.0596-0.034 0.1181-0.0532 0.1756-0.0574 0.0572-0.0044 0.1185 0.0084 0.1835 0.0383 0.0853 0.0393 0.1501 0.0959 0.195 0.1694 0.0452 0.074 0.0658 0.1585 0.062 0.2535-0.0034 0.0951-0.0271 0.1902-0.0709 0.2854-0.047 0.1019-0.1076 0.1854-0.1821 0.2502-0.0741 0.0648-0.1561 0.1028-0.246 0.1143-0.0897 0.011-0.1732-1e-3 -0.2501-0.0364-0.0564-0.026-0.1012-0.0611-0.1351-0.1054-0.034-0.0444-0.0566-0.0913-0.0688-0.1408l-0.2235 0.4851-0.1688-0.0778zm0.5558-0.8043c-0.0591 0.1282-0.0769 0.235-0.0532 0.3204 0.0236 0.0851 0.0726 0.1449 0.1464 0.1789 0.0749 0.0345 0.1539 0.0324 0.2368-0.0067 0.0827-0.0387 0.1549-0.1247 0.2164-0.258 0.0585-0.1272 0.076-0.2341 0.0529-0.3217-0.0232-0.0872-0.071-0.1476-0.1434-0.181-0.0721-0.0332-0.1513-0.0289-0.2378 0.0128-0.0864 0.0418-0.1591 0.1271-0.2181 0.2553zm1.5193 0.908l0.1648 0.102c-0.0746 0.0895-0.162 0.1452-0.2624 0.1673-0.1005 0.0217-0.2085 0.0061-0.3243-0.0472-0.1457-0.0672-0.2407-0.1653-0.2846-0.2943-0.0443-0.1291-0.0289-0.2747 0.0458-0.4368 0.0773-0.1678 0.1805-0.2781 0.3093-0.3309 0.1293-0.0528 0.2625-0.0477 0.4002 0.0158 0.1333 0.0613 0.2213 0.157 0.2638 0.2865 0.0428 0.1297 0.0262 0.277-0.0495 0.4414-0.0048 0.0102-0.0119 0.0251-0.0217 0.0447l-0.7434-0.3424c-0.0444 0.1124-0.052 0.2106-0.0229 0.2943 0.0289 0.084 0.0846 0.145 0.168 0.1834 0.0618 0.0285 0.1222 0.0366 0.1811 0.0241 0.0588-0.0123 0.1173-0.0482 0.1758-0.1079zm-0.4287-0.5287l0.5566 0.2564c0.0311-0.0871 0.0387-0.16 0.023-0.2178-0.0239-0.0898-0.0786-0.1547-0.1642-0.1941-0.0776-0.0357-0.1548-0.0398-0.2316-0.0123-0.0769 0.0275-0.138 0.0836-0.1838 0.1678zm0.5786 0.987l0.0632-0.1372 0.9701-0.4359c-0.0739-0.0294-0.138-0.0569-0.1931-0.0823l-0.4067-0.1873 0.0631-0.1369 0.8148 0.3753-0.0514 0.1115-0.831 0.3843-0.1573 0.0674c0.0782 0.0294 0.1506 0.0592 0.2169 0.0898l0.4608 0.2122-0.067 0.1455-0.8824-0.4064z"/>
  <path class="fil7" d="m64.629 211.88l0.6339-1.3762 0.4739 0.2183c0.107 0.0493 0.1856 0.0937 0.2359 0.1327 0.0706 0.0543 0.1227 0.1183 0.1566 0.1914 0.0441 0.0949 0.0626 0.1981 0.0544 0.3102-0.0077 0.1122-0.04 0.2293-0.0965 0.352-0.0481 0.1045-0.103 0.1915-0.1649 0.2609-0.0615 0.0695-0.1234 0.1221-0.1862 0.1573-0.0625 0.0353-0.1233 0.0578-0.1827 0.067-0.0592 0.0096-0.1246 0.0074-0.1959-0.0065-0.0716-0.0139-0.1489-0.0401-0.2319-0.0784l-0.4966-0.2287zm0.2568-0.0787l0.2939 0.1354c0.0906 0.0417 0.1659 0.0664 0.2253 0.0732 0.0594 0.0067 0.1113 0.0019 0.1563-0.0147 0.063-0.0231 0.1236-0.0658 0.181-0.1275 0.0578-0.062 0.1105-0.1445 0.1585-0.2486 0.0662-0.1438 0.0934-0.2653 0.0819-0.3642-0.0117-0.0994-0.0453-0.1774-0.1008-0.2348-0.04-0.0414-0.1145-0.087-0.2224-0.1367l-0.2894-0.1333-0.4843 1.0512zm1.8171 0.8848c-0.0872 0.0243-0.1648 0.0341-0.2326 0.0296-0.0681-0.0049-0.1352-0.0227-0.2016-0.0532-0.1095-0.0505-0.1812-0.1158-0.2155-0.1964-0.034-0.0805-0.0319-0.1627 0.0064-0.2457 0.0225-0.0489 0.0539-0.0886 0.0949-0.1186 0.0408-0.0302 0.0848-0.0491 0.1319-0.0569 0.0474-0.0076 0.0963-0.0077 0.1472 7e-4 0.0371 0.0065 0.091 0.0209 0.1617 0.0437 0.144 0.0465 0.2535 0.0736 0.3284 0.0806 0.0112-0.0228 0.0183-0.0374 0.0211-0.0434 0.0317-0.069 0.0382-0.125 0.019-0.1677-0.0252-0.0582-0.0809-0.1067-0.1658-0.1458-0.0795-0.0366-0.1445-0.0499-0.1954-0.0396-0.0507 0.0104-0.1013 0.0469-0.1522 0.1094l-0.1545-0.0988c0.0475-0.0636 0.0986-0.1095 0.1528-0.137 0.0544-0.0278 0.1198-0.0384 0.1956-0.0318 0.0759 0.0065 0.1566 0.0294 0.2425 0.0689 0.0852 0.0393 0.1494 0.0813 0.1934 0.1257 0.0439 0.0446 0.0715 0.0876 0.0828 0.1297 0.011 0.0419 0.0107 0.0881-5e-4 0.1393-0.0078 0.0313-0.0288 0.0845-0.0634 0.1595l-0.1037 0.2252c-0.0725 0.1574-0.1147 0.2584-0.1264 0.3031-0.0121 0.0448-0.0162 0.0915-0.0126 0.1394l-0.1765-0.0813c-0.0012-0.043 0.0061-0.0892 0.023-0.1386zm0.1598-0.3839c-0.0731-3e-3 -0.1749-0.0243-0.3053-0.063-0.0742-0.022-0.1287-0.0336-0.163-0.0342-0.0346-9e-4 -0.0654 0.0071-0.092 0.0243-0.0268 0.0169-0.047 0.0398-0.0606 0.0692-0.0208 0.0453-0.0208 0.0908-7e-4 0.1364 0.0202 0.0455 0.0633 0.0836 0.129 0.1138 0.065 0.03 0.1295 0.0427 0.1933 0.0374 0.0637-0.0052 0.1192-0.027 0.1657-0.0654 0.0358-0.0298 0.0707-0.0819 0.105-0.1563l0.0286-0.0622zm0.6408 0.7185l-0.0445 0.1606c-0.0519-0.012-0.0969-0.0264-0.1344-0.0437-0.0615-0.0283-0.1045-0.0598-0.1295-0.095-0.0247-0.0347-0.0366-0.0712-0.0358-0.1093 6e-4 -0.0378 0.0244-0.1077 0.071-0.2089l0.2642-0.5735-0.1241-0.0572 0.0605-0.1314 0.1241 0.0572 0.1138-0.247 0.2148-0.0238-0.1604 0.3482 0.1698 0.0782-0.0606 0.1315-0.1697-0.0782-0.2685 0.5828c-0.0222 0.0483-0.0336 0.0804-0.0342 0.0969-2e-4 0.0165 0.0044 0.0318 0.014 0.0464 0.0098 0.0142 0.0271 0.0272 0.0521 0.0387 0.0189 0.0087 0.0446 0.0178 0.0774 0.0275zm0.2622-0.3002c0.085-0.1845 0.1993-0.2977 0.3431-0.3391 0.1195-0.0343 0.2411-0.0233 0.3644 0.0335 0.1372 0.0632 0.2286 0.1597 0.2739 0.2897 0.0459 0.1299 0.032 0.2738-0.0409 0.4321-0.0592 0.1284-0.1249 0.2205-0.1971 0.2761-0.0724 0.0561-0.1547 0.0873-0.2469 0.0942-0.0925 0.0067-0.1819-0.01-0.269-0.0502-0.1394-0.0642-0.2316-0.1606-0.2765-0.29-0.045-0.1291-0.0286-0.2777 0.049-0.4463zm0.1737 0.08c-0.0589 0.1278-0.075 0.2362-0.0484 0.3253 0.0264 0.0894 0.0819 0.1534 0.1662 0.1923 0.0839 0.0386 0.1685 0.0388 0.2536 8e-4 0.0848-0.0383 0.1575-0.1229 0.2178-0.2536 0.0568-0.1233 0.072-0.2297 0.0452-0.319-0.0269-0.0893-0.0818-0.153-0.1651-0.1914-0.0843-0.0388-0.169-0.0394-0.2539-2e-3 -0.0848 0.0375-0.1567 0.1201-0.2154 0.2476zm0.7985 0.6114l0.1791 0.0507c-0.0216 0.0712-0.0189 0.1345 0.0075 0.1901 0.0262 0.0553 0.0779 0.1008 0.1551 0.1363 0.0776 0.0358 0.1426 0.0464 0.1945 0.0322 0.0521-0.0145 0.0881-0.0429 0.1076-0.0852 0.0177-0.0384 0.0148-0.0759-0.0083-0.1134-0.0162-0.0256-0.0651-0.0711-0.1465-0.1365-0.1092-0.0884-0.1829-0.1551-0.2201-0.2001-0.0372-0.0447-0.0592-0.0933-0.0652-0.1451-0.0061-0.0517 2e-3 -0.102 0.0244-0.1507 0.0205-0.0445 0.0496-0.0808 0.0875-0.1092 0.0377-0.0288 0.0801-0.0473 0.1266-0.0563 0.0351-0.0071 0.0786-0.0072 0.13 2e-4 0.0517 0.0075 0.1035 0.0232 0.1554 0.0471 0.0782 0.036 0.1415 0.0791 0.1904 0.1289 0.0489 0.0497 0.0785 0.1002 0.089 0.1516 0.0103 0.0518 0.0059 0.1119-0.0132 0.1812l-0.1755-0.0533c0.0159-0.0548 0.0127-0.1048-0.01-0.1503-0.0226-0.0453-0.0669-0.0832-0.1326-0.1135-0.0775-0.0357-0.1389-0.0484-0.1836-0.038-0.0452 0.0104-0.0757 0.0328-0.0915 0.0671-0.0102 0.0221-0.0122 0.0448-0.0065 0.0688 0.0054 0.0246 0.02 0.0493 0.044 0.0751 0.014 0.0138 0.0571 0.0511 0.1294 0.1116 0.1048 0.0871 0.1761 0.1514 0.2138 0.1937 0.0381 0.042 0.0615 0.0889 0.0707 0.1401 9e-3 0.0512 3e-4 0.1054-0.0263 0.1631-0.026 0.0564-0.0669 0.1016-0.1226 0.1365-0.056 0.0344-0.1211 0.051-0.1954 0.0498-0.0744-0.0012-0.1508-0.0201-0.229-0.0562-0.1297-0.0597-0.2161-0.1321-0.2592-0.2172-0.0431-0.0852-0.0496-0.1848-0.0195-0.2991zm1.4473 1.0275l0.6339-1.3762 0.5191 0.2392c0.0914 0.042 0.1592 0.0787 0.2032 0.1094 0.0624 0.0424 0.1092 0.09 0.1405 0.1428 0.031 0.0524 0.0473 0.1138 0.049 0.1834 0.0017 0.0699-0.0133 0.1388-0.0447 0.207-0.0539 0.117-0.1368 0.1991-0.2486 0.246-0.1118 0.0463-0.2651 0.0251-0.4595-0.0645l-0.3532-0.1627-0.2576 0.5594-0.1821-0.0838zm0.5146-0.6381l0.3559 0.164c0.1177 0.0542 0.2113 0.0709 0.2809 0.0497 0.0695-0.0211 0.1226-0.0713 0.1591-0.1507 0.0266-0.0577 0.0349-0.1137 0.0246-0.1681-0.0102-0.0545-0.036-0.099-0.0776-0.1341-0.0271-0.0222-0.0816-0.0523-0.1642-0.0904l-0.3522-0.1622-0.2265 0.4918zm1.5763 1.212l0.1647 0.102c-0.0745 0.0895-0.1619 0.1451-0.2623 0.1673-0.1005 0.0217-0.2086 0.0061-0.3243-0.0472-0.1458-0.0672-0.2407-0.1653-0.2847-0.2943-0.0442-0.1291-0.0288-0.2747 0.0459-0.4368 0.0773-0.1679 0.1805-0.2781 0.3093-0.331 0.1292-0.0527 0.2624-0.0477 0.4002 0.0158 0.1332 0.0614 0.2213 0.1571 0.2637 0.2865 0.0429 0.1298 0.0262 0.277-0.0495 0.4414-0.0047 0.0103-0.0119 0.0251-0.0217 0.0447l-0.7433-0.3424c-0.0444 0.1125-0.052 0.2107-0.0229 0.2943 0.0289 0.084 0.0845 0.145 0.1679 0.1834 0.0619 0.0285 0.1222 0.0366 0.1812 0.0241 0.0588-0.0122 0.1173-0.0481 0.1758-0.1078zm-0.4287-0.5288l0.5566 0.2564c0.0311-0.0871 0.0387-0.16 0.023-0.2177-0.0239-0.0899-0.0787-0.1547-0.1642-0.1941-0.0776-0.0358-0.1549-0.0399-0.2316-0.0124-0.0769 0.0276-0.1381 0.0836-0.1838 0.1678zm0.666 1.0273l0.4592-0.9968 0.1518 0.0699-0.0695 0.151c0.0713-0.0526 0.1287-0.0829 0.172-0.0901 0.043-0.0074 0.0846-0.0022 0.124 0.0159 0.0569 0.0263 0.1062 0.0711 0.1485 0.1345l-0.1306 0.1301c-0.0297-0.0435-0.0654-0.0747-0.1067-0.0938-0.0372-0.0171-0.0754-0.0211-0.115-0.0126-0.0398 0.0088-0.0748 0.03-0.1055 0.0637-0.0465 0.0512-0.086 0.1126-0.1189 0.184l-0.2404 0.522-0.1689-0.0778zm0.7116-0.033l0.179 0.0506c-0.0216 0.0713-0.0189 0.1346 0.0075 0.1902 0.0262 0.0553 0.0779 0.1008 0.1551 0.1363 0.0776 0.0358 0.1426 0.0463 0.1945 0.0322 0.0522-0.0145 0.0882-0.0429 0.1077-0.0852 0.0177-0.0385 0.0148-0.0759-0.0084-0.1134-0.0161-0.0256-0.0651-0.0711-0.1465-0.1365-0.1091-0.0884-0.1829-0.1551-0.2201-0.2001-0.0372-0.0447-0.0592-0.0933-0.0652-0.1451-0.0061-0.0517 2e-3 -0.102 0.0244-0.1507 0.0205-0.0445 0.0496-0.0808 0.0875-0.1092 0.0378-0.0288 0.0801-0.0473 0.1266-0.0563 0.0351-0.0071 0.0787-0.0072 0.1301 1e-4 0.0517 0.0076 0.1035 0.0233 0.1553 0.0472 0.0782 0.036 0.1415 0.0791 0.1905 0.1289 0.0489 0.0497 0.0784 0.1002 0.0889 0.1516 0.0104 0.0518 0.0059 0.1119-0.0131 0.1812l-0.1755-0.0533c0.0158-0.0548 0.0126-0.1048-0.0101-0.1503-0.0226-0.0453-0.0669-0.0832-0.1326-0.1135-0.0774-0.0357-0.1388-0.0484-0.1836-0.038-0.0452 0.0104-0.0756 0.0328-0.0915 0.0671-0.0101 0.0221-0.0121 0.0448-0.0064 0.0688 0.0054 0.0246 0.02 0.0493 0.0439 0.0751 0.0141 0.0138 0.0572 0.0511 0.1295 0.1116 0.1047 0.0871 0.1761 0.1514 0.2137 0.1937 0.0382 0.042 0.0616 0.0889 0.0707 0.1401 9e-3 0.0512 3e-4 0.1054-0.0262 0.1631-0.026 0.0564-0.067 0.1016-0.1227 0.1365-0.0559 0.0344-0.1211 0.051-0.1954 0.0498-0.0744-0.0012-0.1508-0.0201-0.229-0.0562-0.1297-0.0597-0.216-0.1321-0.2592-0.2172-0.0431-0.0852-0.0496-0.1848-0.0194-0.2991zm1.0582 0.2439c0.085-0.1845 0.1993-0.2977 0.343-0.3391 0.1196-0.0343 0.2411-0.0233 0.3645 0.0335 0.1371 0.0631 0.2285 0.1596 0.2739 0.2897 0.0459 0.1299 0.032 0.2737-0.0409 0.4321-0.0592 0.1284-0.125 0.2205-0.1972 0.2761-0.0723 0.0561-0.1547 0.0873-0.2468 0.0942-0.0925 0.0067-0.1819-0.01-0.269-0.0502-0.1394-0.0642-0.2316-0.1606-0.2765-0.29-0.045-0.1291-0.0286-0.2777 0.049-0.4463zm0.1737 0.08c-0.0589 0.1278-0.075 0.2362-0.0485 0.3253 0.0264 0.0894 0.082 0.1534 0.1662 0.1923 0.084 0.0386 0.1685 0.0388 0.2537 7e-4 0.0847-0.0382 0.1575-0.1228 0.2177-0.2535 0.0568-0.1233 0.0721-0.2297 0.0453-0.319-0.0269-0.0893-0.0818-0.153-0.1651-0.1914-0.0843-0.0388-0.169-0.0394-0.2539-2e-3 -0.0848 0.0375-0.1567 0.1201-0.2154 0.2476zm0.729 0.9402l0.4592-0.9969 0.1518 0.07-0.0652 0.1417c0.1239-0.0758 0.2548-0.0819 0.3929-0.0183 0.0603 0.0278 0.1103 0.064 0.1507 0.1086 0.0407 0.0452 0.0651 0.0907 0.0739 0.1374 0.0092 0.0466 0.0074 0.0962-0.0045 0.149-0.0084 0.0342-0.0305 0.0905-0.0665 0.1687l-0.2823 0.6129-0.1692-0.078 0.2794-0.6065c0.0316-0.0686 0.049-0.1231 0.0516-0.1634 0.0025-0.04-0.0083-0.078-0.0324-0.1136-0.0241-0.036-0.0586-0.0643-0.1037-0.0851-0.0721-0.0332-0.1446-0.0386-0.218-0.0173-0.0734 0.0217-0.1392 0.0963-0.1981 0.2241l-0.2508 0.5444-0.1688-0.0777zm1.7763 0.669c-0.0873 0.0243-0.1648 0.0341-0.2326 0.0296-0.0681-0.0049-0.1352-0.0226-0.2016-0.0532-0.1096-0.0505-0.1812-0.1158-0.2155-0.1964-0.0341-0.0805-0.0319-0.1627 0.0063-0.2457 0.0226-0.0489 0.0539-0.0886 0.095-0.1185 0.0407-0.0303 0.0848-0.0492 0.1319-0.057 0.0474-0.0076 0.0963-0.0077 0.1472 7e-4 0.0371 0.0065 0.091 0.0209 0.1616 0.0437 0.1441 0.0466 0.2536 0.0737 0.3284 0.0806 0.0113-0.0228 0.0183-0.0374 0.0212-0.0434 0.0317-0.069 0.0381-0.125 0.0189-0.1677-0.0251-0.0581-0.0808-0.1067-0.1658-0.1458-0.0794-0.0366-0.1444-0.0499-0.1953-0.0396-0.0507 0.0105-0.1013 0.0469-0.1522 0.1094l-0.1545-0.0988c0.0475-0.0636 0.0986-0.1095 0.1527-0.137 0.0545-0.0278 0.1199-0.0384 0.1957-0.0318 0.0758 0.0065 0.1566 0.0294 0.2425 0.0689 0.0852 0.0393 0.1494 0.0813 0.1934 0.1257 0.0439 0.0446 0.0715 0.0876 0.0828 0.1297 0.0109 0.0419 0.0107 0.0881-5e-4 0.1393-0.0078 0.0313-0.0288 0.0845-0.0634 0.1595l-0.1037 0.2253c-0.0725 0.1573-0.1147 0.2583-0.1264 0.303-0.0121 0.0448-0.0162 0.0915-0.0126 0.1394l-0.1765-0.0813c-0.0012-0.0429 0.0061-0.0892 0.023-0.1386zm0.1598-0.3839c-0.0731-3e-3 -0.1749-0.0242-0.3054-0.063-0.0741-0.022-0.1286-0.0336-0.1629-0.0342-0.0346-9e-4 -0.0655 0.0071-0.092 0.0243-0.0268 0.0169-0.0471 0.0398-0.0606 0.0692-0.0209 0.0453-0.0208 0.0908-8e-4 0.1364 0.0203 0.0455 0.0634 0.0836 0.1291 0.1139 0.065 0.0299 0.1295 0.0426 0.1932 0.0374 0.0638-0.0053 0.1193-0.0271 0.1657-0.0655 0.0359-0.0298 0.0708-0.0819 0.1051-0.1563l0.0286-0.0622zm0.1985 0.6981l0.6339-1.3761 0.1689 0.0778-0.6339 1.3761-0.1689-0.0778zm1.2609 0.1917l0.1648 0.1019c-0.0746 0.0895-0.162 0.1452-0.2624 0.1673-0.1005 0.0218-0.2086 0.0061-0.3243-0.0472-0.1458-0.0671-0.2407-0.1653-0.2847-0.2943-0.0442-0.129-0.0288-0.2746 0.0459-0.4368 0.0773-0.1678 0.1805-0.2781 0.3093-0.3309 0.1292-0.0528 0.2624-0.0477 0.4002 0.0158 0.1333 0.0614 0.2213 0.1571 0.2637 0.2865 0.0429 0.1297 0.0262 0.277-0.0495 0.4414-0.0047 0.0102-0.0119 0.0251-0.0217 0.0447l-0.7433-0.3424c-0.0444 0.1124-0.052 0.2107-0.0229 0.2943 0.0289 0.084 0.0846 0.145 0.1679 0.1834 0.0619 0.0285 0.1222 0.0366 0.1812 0.0241 0.0588-0.0122 0.1173-0.0482 0.1758-0.1078zm-0.4287-0.5288l0.5566 0.2564c0.0311-0.0871 0.0387-0.16 0.023-0.2178-0.0239-0.0898-0.0787-0.1547-0.1642-0.1941-0.0776-0.0357-0.1549-0.0398-0.2316-0.0123-0.0769 0.0275-0.1381 0.0836-0.1838 0.1678zm0.7374 0.6994l0.1791 0.0506c-0.0216 0.0712-0.0189 0.1346 0.0075 0.1902 0.0262 0.0552 0.0779 0.1008 0.1551 0.1363 0.0776 0.0357 0.1426 0.0463 0.1945 0.0321 0.0521-0.0144 0.0881-0.0428 0.1076-0.0852 0.0177-0.0384 0.0148-0.0758-0.0083-0.1133-0.0162-0.0256-0.0652-0.0711-0.1465-0.1366-0.1092-0.0883-0.1829-0.155-0.2201-0.2-0.0372-0.0448-0.0592-0.0933-0.0652-0.1451-0.0061-0.0517 2e-3 -0.102 0.0244-0.1507 0.0205-0.0445 0.0496-0.0809 0.0875-0.1092 0.0377-0.0289 0.0801-0.0473 0.1266-0.0563 0.035-0.0071 0.0786-0.0073 0.13 1e-4 0.0517 0.0075 0.1035 0.0233 0.1554 0.0471 0.0782 0.0361 0.1414 0.0792 0.1904 0.1289 0.0489 0.0498 0.0785 0.1003 0.0889 0.1517 0.0104 0.0517 6e-3 0.1119-0.0131 0.1812l-0.1755-0.0533c0.0159-0.0548 0.0126-0.1049-0.01-0.1503-0.0226-0.0453-0.0669-0.0832-0.1326-0.1135-0.0775-0.0357-0.1389-0.0484-0.1836-0.038-0.0452 0.0103-0.0757 0.0327-0.0915 0.0671-0.0102 0.022-0.0122 0.0448-0.0065 0.0688 0.0054 0.0246 0.02 0.0493 0.0439 0.075 0.0141 0.0139 0.0572 0.0511 0.1295 0.1116 0.1048 0.0872 0.1761 0.1515 0.2138 0.1938 0.0381 0.042 0.0615 0.0889 0.0707 0.1401 9e-3 0.0511 3e-4 0.1054-0.0263 0.1631-0.026 0.0564-0.0669 0.1016-0.1226 0.1365-0.056 0.0344-0.1211 0.051-0.1954 0.0498-0.0744-0.0013-0.1508-0.0202-0.229-0.0562-0.1297-0.0597-0.2161-0.1321-0.2592-0.2172-0.0431-0.0852-0.0496-0.1849-0.0195-0.2991zm-16.234-1.9105l0.6339-1.3762 0.1824 0.084-0.2603 0.5652 0.715 0.3294 0.2604-0.5652 0.1823 0.0841-0.6338 1.3761-0.1824-0.084 0.2987-0.6485-0.7151-0.3294-0.2987 0.6485-0.1824-0.084zm1.9064-0.5543l0.0895-0.1945 0.1693 0.078-0.0896 0.1944-0.1692-0.0779zm-0.5443 1.1817l0.4591-0.9969 0.1692 0.078-0.4591 0.9968-0.1692-0.0779zm0.4959-0.1324l0.179 0.0507c-0.0215 0.0712-0.0189 0.1345 0.0076 0.1902 0.0262 0.0552 0.0779 0.1007 0.1551 0.1363 0.0775 0.0357 0.1426 0.0463 0.1945 0.0321 0.0521-0.0144 0.0881-0.0429 0.1076-0.0852 0.0177-0.0384 0.0148-0.0759-0.0083-0.1134-0.0162-0.0256-0.0652-0.0711-0.1466-0.1365-0.1091-0.0884-0.1829-0.1551-0.2201-0.2-0.0371-0.0448-0.0591-0.0934-0.0651-0.1451-0.0062-0.0517 0.0019-0.1021 0.0244-0.1507 0.0205-0.0446 0.0495-0.0809 0.0875-0.1092 0.0377-0.0289 0.08-0.0474 0.1265-0.0564 0.0351-7e-3 0.0787-0.0072 0.1301 2e-4 0.0517 0.0075 0.1035 0.0232 0.1554 0.0471 0.0782 0.036 0.1414 0.0791 0.1904 0.1289 0.0489 0.0497 0.0785 0.1002 0.0889 0.1516 0.0104 0.0518 0.0059 0.1119-0.0131 0.1812l-0.1755-0.0533c0.0159-0.0548 0.0126-0.1048-0.01-0.1503-0.0227-0.0453-0.067-0.0832-0.1326-0.1134-0.0775-0.0357-0.1389-0.0485-0.1837-0.0381-0.0451 0.0104-0.0756 0.0328-0.0914 0.0671-0.0102 0.0221-0.0122 0.0448-0.0065 0.0688 0.0054 0.0246 0.02 0.0493 0.0439 0.0751 0.0141 0.0139 0.0572 0.0511 0.1295 0.1116 0.1048 0.0871 0.1761 0.1515 0.2138 0.1937 0.0381 0.042 0.0615 0.0889 0.0706 0.1401 9e-3 0.0512 4e-4 0.1054-0.0262 0.1631-0.026 0.0564-0.067 0.1016-0.1227 0.1365-0.0559 0.0345-0.121 0.051-0.1953 0.0498-0.0745-0.0012-0.1509-0.0201-0.2291-0.0561-0.1297-0.0598-0.216-0.1321-0.2591-0.2173-0.0432-0.0852-0.0497-0.1848-0.0195-0.2991zm1.3301 0.7902l-0.0444 0.1605c-0.052-0.0119-0.097-0.0263-0.1345-0.0436-0.0615-0.0283-0.1044-0.0598-0.1294-0.095-0.0248-0.0347-0.0367-0.0713-0.0359-0.1093 7e-4 -0.0378 0.0244-0.1077 0.0711-0.209l0.2641-0.5734-0.124-0.0572 0.0605-0.1314 0.1241 0.0571 0.1137-0.2469 0.2149-0.0238-0.1604 0.3482 0.1697 0.0782-0.0605 0.1314-0.1698-0.0782-0.2684 0.5829c-0.0223 0.0483-0.0337 0.0804-0.0342 0.0969-2e-4 0.0165 0.0044 0.0318 0.014 0.0464 0.0097 0.0142 0.0271 0.0272 0.052 0.0387 0.0189 0.0087 0.0447 0.0178 0.0774 0.0275zm0.2623-0.3002c0.085-0.1846 0.1992-0.2978 0.343-0.3391 0.1196-0.0343 0.2411-0.0234 0.3645 0.0335 0.1371 0.0631 0.2285 0.1596 0.2739 0.2896 0.0458 0.1299 0.032 0.2738-0.041 0.4321-0.0591 0.1285-0.1249 0.2206-0.1971 0.2762-0.0724 0.0561-0.1547 0.0873-0.2468 0.0942-0.0925 0.0067-0.1819-0.0101-0.269-0.0502-0.1394-0.0642-0.2316-0.1606-0.2765-0.2901-0.045-0.129-0.0287-0.2776 0.049-0.4462zm0.1736 0.08c-0.0588 0.1278-0.0749 0.2362-0.0484 0.3253 0.0264 0.0894 0.0819 0.1534 0.1662 0.1922 0.0839 0.0387 0.1685 0.0389 0.2537 8e-4 0.0847-0.0382 0.1575-0.1228 0.2177-0.2535 0.0568-0.1234 0.072-0.2298 0.0452-0.3191-0.0268-0.0892-0.0818-0.1529-0.1651-0.1913-0.0842-0.0388-0.169-0.0394-0.2538-2e-3 -0.0849 0.0375-0.1567 0.1201-0.2155 0.2476zm0.7272 0.9393l0.4591-0.9969 0.1519 0.07-0.0695 0.1509c0.0712-0.0526 0.1286-0.0828 0.172-0.0901 0.043-0.0073 0.0845-0.0022 0.124 0.016 0.0569 0.0262 0.1062 0.071 0.1485 0.1345l-0.1306 0.1301c-0.0297-0.0436-0.0654-0.0748-0.1068-0.0938-0.0371-0.0171-0.0753-0.0212-0.1149-0.0127-0.0399 0.0089-0.0748 0.0301-0.1055 0.0637-0.0465 0.0513-0.0861 0.1127-0.1189 0.1841l-0.2405 0.5219-0.1688-0.0777zm1.187-0.8856l0.0896-0.1945 0.1692 0.0779-0.0896 0.1945-0.1692-0.0779zm-0.5443 1.1816l0.4591-0.9968 0.1692 0.0779-0.4591 0.9969-0.1692-0.078zm1.1335 0.373c-0.0873 0.0243-0.1649 0.034-0.2326 0.0296-0.0681-5e-3 -0.1352-0.0227-0.2016-0.0533-0.1096-0.0504-0.1812-0.1157-0.2155-0.1963-0.0341-0.0806-0.0319-0.1627 0.0063-0.2457 0.0226-0.049 0.0539-0.0886 0.0949-0.1186 0.0408-0.0302 0.0849-0.0491 0.132-0.0569 0.0474-0.0077 0.0963-0.0077 0.1472 6e-4 0.0371 0.0066 0.091 0.0209 0.1616 0.0438 0.1441 0.0465 0.2536 0.0736 0.3284 0.0806 0.0113-0.0228 0.0183-0.0374 0.0211-0.0435 0.0318-0.0689 0.0382-0.125 0.019-0.1676-0.0252-0.0582-0.0809-0.1067-0.1658-0.1459-0.0795-0.0366-0.1444-0.0499-0.1953-0.0395-0.0508 0.0104-0.1014 0.0469-0.1523 0.1093l-0.1544-0.0988c0.0475-0.0635 0.0986-0.1095 0.1527-0.1369 0.0544-0.0278 0.1199-0.0384 0.1957-0.0319s0.1566 0.0294 0.2425 0.069c0.0852 0.0392 0.1494 0.0813 0.1934 0.1256 0.0439 0.0447 0.0714 0.0877 0.0828 0.1298 0.0109 0.0419 0.0107 0.088-5e-4 0.1392-0.0079 0.0313-0.0288 0.0845-0.0634 0.1596l-0.1038 0.2252c-0.0724 0.1573-0.1147 0.2583-0.1263 0.303-0.0121 0.0449-0.0162 0.0916-0.0126 0.1395l-0.1765-0.0813c-0.0012-0.043 0.0061-0.0893 0.023-0.1386zm0.1598-0.3839c-0.0732-0.0031-0.1749-0.0243-0.3054-0.063-0.0742-0.0221-0.1286-0.0336-0.1629-0.0342-0.0346-9e-4 -0.0655 7e-3 -0.092 0.0243-0.0268 0.0168-0.0471 0.0398-0.0606 0.0692-0.0209 0.0452-0.0208 0.0907-8e-4 0.1364 0.0203 0.0454 0.0634 0.0836 0.129 0.1138 0.0651 0.03 0.1296 0.0426 0.1933 0.0374s0.1193-0.0271 0.1657-0.0655c0.0358-0.0297 0.0708-0.0819 0.105-0.1563l0.0287-0.0621zm0.1985 0.6981l0.6339-1.3761 0.1688 0.0778-0.6339 1.3761-0.1688-0.0778zm2.1905 0.4241l0.161 0.1301c-0.1068 0.1318-0.2283 0.2141-0.3636 0.2473-0.1355 0.0327-0.2746 0.0161-0.4181-0.05-0.1484-0.0684-0.255-0.154-0.3202-0.257-0.065-0.1034-0.0955-0.2235-0.0912-0.3601 0.0045-0.137 0.0368-0.2713 0.0973-0.4026 0.066-0.1433 0.1508-0.2557 0.2547-0.3372 0.1039-0.0814 0.2191-0.1266 0.3459-0.1354 0.1264-0.0089 0.2503 0.0147 0.3718 0.0706 0.1378 0.0635 0.2374 0.1518 0.2989 0.2651 0.0616 0.1135 0.0816 0.242 0.0599 0.3861l-0.1986-0.0402c0.0142-0.115 0.0015-0.209-0.0383-0.2829-0.0394-0.0737-0.1052-0.1316-0.1975-0.1741-0.1057-0.0487-0.2055-0.064-0.2999-0.0461-0.0947 0.0182-0.1759 0.063-0.2438 0.1354-0.0681 0.0721-0.1231 0.1535-0.1649 0.2442-0.054 0.1172-0.084 0.2269-0.0903 0.3301-0.0059 0.1029 0.0169 0.1926 0.0691 0.269 0.0521 0.0766 0.1201 0.1339 0.204 0.1725 0.1019 0.047 0.2017 0.0572 0.2996 0.0312 0.0979-0.0264 0.1859-0.0918 0.2642-0.196zm0.159 0.6582l0.6339-1.3761 0.1689 0.0777-0.6339 1.3762-0.1689-0.0778zm0.4898 0.2256l0.4592-0.9968 0.1689 0.0778-0.4592 0.9968-0.1689-0.0778zm0.5077-1.1248l0.246-0.2051 0.2213 0.102-0.3273 0.1676-0.14-0.0645zm-0.0325 1.3437l0.4592-0.9968 0.1519 0.0699-0.0653 0.1417c0.1239-0.0758 0.2549-0.0819 0.3929-0.0183 0.0603 0.0278 0.1103 0.0641 0.1508 0.1087 0.0406 0.0451 0.065 0.0906 0.0739 0.1374 0.0092 0.0465 0.0073 0.0962-0.0046 0.149-0.0084 0.0342-0.0304 0.0904-0.0664 0.1686l-0.2824 0.6129-0.1692-0.0779 0.2794-0.6066c0.0316-0.0685 0.049-0.1231 0.0516-0.1634 0.0025-0.04-0.0083-0.078-0.0323-0.1135-0.0242-0.036-0.0586-0.0643-0.1037-0.0851-0.0722-0.0332-0.1446-0.0387-0.2181-0.0173-0.0733 0.0217-0.1392 0.0963-0.198 0.2241l-0.2508 0.5444-0.1689-0.0778zm1.6142-0.6888l0.0896-0.1945 0.1692 0.0779-0.0896 0.1945-0.1692-0.0779zm-0.5443 1.1816l0.4592-0.9968 0.1692 0.0779-0.4592 0.9969-0.1692-0.078zm1.2451 0.1308l0.1559 0.0982c-0.0706 0.1062-0.1584 0.1744-0.2631 0.2047-0.1045 0.0303-0.2114 0.0203-0.3203-0.0299-0.1362-0.0627-0.2256-0.1578-0.2672-0.285-0.042-0.1273-0.0248-0.2743 0.052-0.441 0.0496-0.1076 0.1109-0.1935 0.1837-0.2579 0.0731-0.0642 0.1551-0.0999 0.2467-0.1065 0.0914-0.0069 0.1802 0.0095 0.2657 0.0489 0.1083 0.0499 0.1844 0.1183 0.2277 0.2047 0.0437 0.0865 0.0521 0.1844 0.0252 0.2944l-0.176-0.0505c0.0151-0.0742 0.0108-0.1372-0.0134-0.1895-0.0242-0.0518-0.0644-0.091-0.1208-0.1169-0.0853-0.0393-0.1685-0.0408-0.2499-4e-3 -0.0812 0.0363-0.1523 0.1205-0.213 0.2525-0.0618 0.1339-0.0809 0.2431-0.0574 0.3279 0.0234 0.084 0.0763 0.1453 0.159 0.1834 0.0663 0.0306 0.1308 0.0355 0.1941 0.0153s0.1203-0.0696 0.1711-0.1488zm0.3091-0.0192c0.085-0.1846 0.1992-0.2977 0.343-0.3391 0.1195-0.0343 0.2411-0.0234 0.3645 0.0335 0.1371 0.0631 0.2285 0.1596 0.2739 0.2896 0.0458 0.1299 0.032 0.2738-0.041 0.4321-0.0591 0.1285-0.1249 0.2206-0.1971 0.2762-0.0724 0.0561-0.1547 0.0873-0.2468 0.0942-0.0925 0.0067-0.1819-0.01-0.269-0.0502-0.1394-0.0642-0.2316-0.1606-0.2765-0.2901-0.045-0.129-0.0287-0.2776 0.049-0.4462zm0.1736 0.08c-0.0588 0.1278-0.075 0.2362-0.0484 0.3253 0.0264 0.0894 0.0819 0.1534 0.1662 0.1922 0.0839 0.0387 0.1685 0.0389 0.2537 8e-4 0.0847-0.0382 0.1575-0.1228 0.2177-0.2535 0.0568-0.1234 0.072-0.2298 0.0452-0.3191-0.0268-0.0892-0.0818-0.1529-0.1651-0.1913-0.0842-0.0388-0.169-0.0394-0.2538-2e-3 -0.0849 0.0375-0.1567 0.1201-0.2155 0.2476zm-13.197-3.8464l0.0886-0.1923 0.1925 0.0887-0.0886 0.1923-0.1925-0.0887zm-0.3706 0.8045l0.0887-0.1925 0.1925 0.0887-0.0887 0.1925-0.1925-0.0887z"/>
  <path class="fil8 str0" d="m66.292 231.85c2.4238-1.2067 5.8323 0.5505 8.2088 4.0021l0.0186-0.0102c0.7243-0.3605 2.2181 1.1678 3.3359 3.4132 1.1178 2.2453 1.4369 4.3584 0.7126 4.719-0.3574 0.1779-0.902-0.104-1.4965-0.7052 0.0753 2.4921-0.7538 4.5399-2.4213 5.3701-2.8248 1.4063-6.9869-1.2125-9.2945-5.8479-2.3077-4.6353-1.8884-9.5348 0.9364-10.941z"/>
  <path class="fil8 str0" d="m120.93 232.4c-2.4239-1.2067-5.8323 0.5505-8.2089 4.0021l-0.0186-0.0101c-0.7243-0.3606-2.218 1.1677-3.3359 3.4132-1.1177 2.2452-1.4368 4.3583-0.7125 4.7189 0.3574 0.178 0.9019-0.104 1.4964-0.7052-0.0752 2.4921 0.7538 4.5399 2.4213 5.3701 2.8248 1.4063 6.9869-1.2125 9.2946-5.8479 2.3076-4.6353 1.8884-9.5348-0.9364-10.941z"/>
  <path class="fil1 str0" d="m46.077 211.21c-1.3416-1.7209-2.0038-3.9032-1.6712-6.1534 0.0717-0.4854 0.1872-0.9541 0.3416-1.4039 8.7227-23.655 22.138-40.38 37.989-53.508 4.6364 5.7016 2.6953 15.513-7.5218 24.891l-4.1122 13.608-7.8683 17.039 13.451 28.433c-2.4706 5.9586-13.989 7.7135-17.581 4.5733l-13.027-27.479z"/>
  <path class="fil1 str0" d="m142.92 216.59c1.5788-1.5063 2.5529-3.5683 2.5529-5.843 0-0.4907-0.0457-0.9712-0.1326-1.4387-5.1704-24.676-15.996-43.183-29.757-58.488-5.4203 4.9624-4.9345 14.952 3.8016 25.723l2.0784 14.063 5.2924 18.006-17.464 26.161c1.5729 6.2558 12.711 9.676 16.724 7.0947l16.905-25.279z"/>
  <path class="fil9" d="m96.91 192.79l1.9488-2.7715-1.8031-2.5608h1.1295l0.8193 1.2496c0.1526 0.2382 0.2777 0.437 0.3702 0.5981 0.1475-0.2211 0.2829-0.4165 0.408-0.5879l0.8981-1.2598h1.0798l-1.8425 2.5111 1.9831 2.8212h-1.109l-1.0952-1.6574-0.2914-0.4474-1.4003 2.1048h-1.0953z"/>
  <path class="fil3 str0" d="m99.368 201.34c2.1843 0 3.9559 1.7716 3.9559 3.9562 0 2.1843-1.7716 3.9559-3.9559 3.9559-2.1846 0-3.9561-1.7716-3.9561-3.9559 0-2.1846 1.7715-3.9562 3.9561-3.9562z"/>
  <path class="fil3 str0" d="m99.368 216.51c2.1843 0 3.9559 1.7715 3.9559 3.9561 0 2.1843-1.7716 3.9559-3.9559 3.9559-2.1846 0-3.9561-1.7716-3.9561-3.9559 0-2.1846 1.7715-3.9561 3.9561-3.9561z"/>
  <path class="fil9" d="m96.91 207.96l1.9488-2.7715-1.8031-2.5608h1.1295l0.8193 1.2496c0.1526 0.2382 0.2777 0.437 0.3702 0.5981 0.1475-0.2211 0.2829-0.4165 0.408-0.5879l0.8981-1.2598h1.0798l-1.8425 2.5111 1.9831 2.8212h-1.109l-1.0952-1.6574-0.2914-0.4474-1.4003 2.1048h-1.0953z"/>
  <path class="fil9" d="m96.91 223.13l1.9488-2.7715-1.8031-2.5608h1.1295l0.8193 1.2496c0.1526 0.2382 0.2777 0.437 0.3702 0.5981 0.1475-0.2211 0.2829-0.4165 0.408-0.5879l0.8981-1.2598h1.0798l-1.8425 2.5111 1.9831 2.8212h-1.109l-1.0952-1.6574-0.2914-0.4474-1.4003 2.1048h-1.0953z"/>
   <path class="fil10 str0" d="m82.776 158.55c1.2225-4.3679 3.4803-8.4296 7.0715-11.299 3.2454-2.5931 7.2658-3.9191 11.42-3.6608 3.8454 0.2393 7.4495 1.8154 10.294 4.4041 3.279 2.9839 5.2495 7.0047 6.0916 11.322l0.0275 0.1405 0.1248 9.9039c3.0935 0.8264 5.3729 3.6482 5.3729 7.002 0 4.002-3.2455 7.2474-7.2475 7.2474s-7.2474-3.2454-7.2474-7.2474c0-3.5579 2.5649-6.5177 5.9464-7.1309l-0.1191-9.4458c-0.7245-3.5896-2.3507-6.9561-5.0851-9.4445-2.3105-2.1024-5.2311-3.3893-8.3555-3.5837-3.3686-0.2095-6.6113 0.8709-9.2418 2.9727-2.8627 2.2874-4.7072 5.5089-5.7857 8.9629 6.3316 1.0478 10.614 6.1972 9.5253 12.806l0.1467 18.443-3.1735 0.0252-0.149-18.728 0.0252-0.143c0.4577-2.5972-0.1009-5.0559-2.0335-6.9174-1.381-1.33-3.2458-2.1298-5.1337-2.3964l-0.0553 0.2357-1.4313-0.336c-1.3617 0.0079-2.7292 0.2916-3.9475 0.8944-3.2777 1.6219-4.3706 4.9548-4.1751 8.4257l0.0017 0.0311 0.3204 18.895-3.1733 0.0538-0.3191-18.833c-0.2594-4.7624 1.4951-9.2185 5.938-11.417 1.363-0.6745 2.854-1.0613 4.3672-1.1823z"/>
   <path class="fil11 str0" d="m115.88 171.85c2.6549 0 4.808 2.153 4.808 4.8079s-2.1531 4.8079-4.808 4.8079-4.8079-2.153-4.8079-4.8079 2.153-4.8079 4.8079-4.8079z"/>
   <path class="fil10 str0" d="m115.88 173.44c1.7788 0 3.2211 1.4424 3.2211 3.2211 0 1.7788-1.4423 3.2211-3.2211 3.2211-1.7787 0-3.2211-1.4423-3.2211-3.2211 0-1.7787 1.4424-3.2211 3.2211-3.2211z"/>
   <polygon class="fil12 str0" points="71.61 184.1 77.034 184.1 77.034 189.99 71.61 189.99"/>
   <polygon class="fil12 str0" points="91.462 184.3 96.887 184.3 96.887 190.18 91.462 190.18"/>
   <polygon class="fil13 str0" points="72.578 171.02 76.066 171.02 76.066 184.1 72.578 184.1"/>
   <polygon class="fil13 str0" points="92.43 171.21 95.918 171.21 95.918 184.3 92.43 184.3"/>
  <path class="fil8" d="m135.63 99.979c3.9646 0 7.1796 3.2149 7.1796 7.1793 0 3.9646-3.215 7.1795-7.1796 7.1795-0.2378 0-0.4726-0.012-0.7045-0.0345-2.8574 14.322-14.136 25.611-28.453 28.482l-0.0559 7.4828-7.1516 12.708-6.8747-12.429-0.2767-7.7619c-14.317-2.8707-25.595-14.159-28.453-28.482-0.2319 0.0225-0.4668 0.0345-0.7046 0.0345-3.9644 0-7.1793-3.2149-7.1793-7.1795 0-3.9644 3.2149-7.1793 7.1793-7.1793 0.2378 0 0.4725 0.012 0.7044 0.0345 1.2807-6.4192 4.2538-12.228 8.4329-16.943l-2.8659 8.7166 14.056 1.1713 4.5388-9.3704-0.2928 9.6632 14.934-1.4641-1.9033-13.177 7.3206 14.641 16.545-1.7569-6.4422-12.152 9.9561 11.567 3.6083-0.4921c1.5507 2.9812 2.7006 6.2039 3.3777 9.5973 0.2319-0.0225 0.4667-0.0345 0.7043-0.0345z"/>
  <path class="fil10 str0" d="m117.73 100.38c5.3585-0.672 10.682-1.6023 15.953-2.7768l1.0849-0.2418 0.4837 2.1699-1.085 0.2419c-2.9194 0.6506-5.8546 1.2273-8.803 1.7275 0.1505 0.3383 0.234 0.7101 0.234 1.0932v16.04c0 1.4622-1.192 2.6543-2.6542 2.6543h-18.589c-1.4646 0-2.6695-1.1974-2.6543-2.666l0.1513-14.468c0.0011-0.1092 0.0087-0.216 0.0224-0.3207-2.0849 0.0615-4.1708 0.0848-6.2566 0.0704 0.0624 0.2211 0.0959 0.456 0.0959 0.7016v14.136c0 1.462-1.1923 2.6543-2.6543 2.6543h-18.589c-1.4622 0-2.6543-1.1921-2.6543-2.6543v-16.04c0-0.191 0.0208-0.3808 0.0608-0.5659-2.5921-0.3646-5.1765-0.7831-7.7515-1.2532l-1.0934-0.1998 0.3992-2.1871 1.0937 0.1996c3.0381 0.5549 6.0895 1.0367 9.151 1.4421 0.2929-0.0863 0.6001-0.1155 0.9077-0.0842l13.999 1.4334c5.288 0.2535 10.586 0.2647 15.875 0.0248l13.273-1.1315z"/>
  <path class="fil14 str0" d="m64.328 99.784c3.1957 0.5836 6.3541 1.0776 9.4773 1.4866m14.697 1.32c5.4482 0.2622 10.787 0.2639 16.027 0.0256m13.318-1.1351c5.4638-0.6842 10.821-1.6256 16.081-2.7979m-29.419 3.9347l0.0203-0.0017 13.318-1.1351 5.0999-0.4348c0.8457-0.0721 1.5426 0.6942 1.5426 1.5426v16.04c0 0.8486-0.694 1.5426-1.5426 1.5426h-18.589c-0.8484 0-1.5515-0.694-1.5426-1.5426l0.1512-14.468c0.0089-0.8486 0.697-1.4704 1.5427-1.5426zm-30.036-1.4637l14.029 1.4364 4.5598 0.467c0.8442 0.0863 1.5426 0.6942 1.5426 1.5426v14.136c0 0.8484-0.6942 1.5426-1.5426 1.5426h-18.589c-0.8486 0-1.5426-0.694-1.5426-1.5426v-16.04c0-0.6089 0.3597-1.1825 0.8747-1.4262 0.2026-0.0959 0.4295-0.1407 0.6679-0.1164z"/>
  <path class="fil10 str0" d="m82.552 106.9c2.0212 0 3.6603 1.6391 3.6603 3.6604 0 2.0212-1.6391 3.6603-3.6603 3.6603-2.0213 0-3.6604-1.6391-3.6604-3.6603 0-2.0213 1.6391-3.6604 3.6604-3.6604z"/>
  <path class="fil10 str0" d="m113.15 106.61c2.0212 0 3.6603 1.6391 3.6603 3.6603 0 2.0213-1.6391 3.6604-3.6603 3.6604s-3.6603-1.6391-3.6603-3.6604c0-2.0212 1.6391-3.6603 3.6603-3.6603z"/>
  <path class="fil15" d="m108.88 127.46c-0.3494 4.9698-4.8638 8.9033-10.38 8.9033-5.3287 0-9.7223-3.6701-10.33-8.3989 2.1251 2.9321 5.8916 4.8824 10.184 4.8824 4.5338 0 8.481-2.1759 10.527-5.3868z"/>
  <path class="fil16" d="m99.097 133.84c1.5721 0 2.974 0.6218 3.8863 1.593-1.3587 0.5958-2.8802 0.9303-4.4871 0.9303-1.2585 0-2.4649-0.2053-3.5817-0.5802 0.887-1.169 2.429-1.9431 4.1825-1.9431z"/>
  <path class="fil6 str0" d="m96.01 121.92c0.6962-1.1367 1.6314-2.2776 2.5431-2.2034 0.8838 0.0719 1.7484 1.319 2.2052 2.7538"/>
  <path class="fil1 str0" d="m108.65 244.52c5.4903 2.0313 10.519-0.6002 15.917 0l-0.1386 8.2648-15.64-0.0034-0.1385-8.2614z"/>
</svg>
