<?xml version="1.0" standalone="no"?>
<!DOCTYPE svg PUBLIC "-//W3C//DTD SVG 20010904//EN"
 "http://www.w3.org/TR/2001/REC-SVG-20010904/DTD/svg10.dtd">
<svg version="1.0" xmlns="http://www.w3.org/2000/svg"
 width="2000.000000pt" height="2000.000000pt" viewBox="0 0 2000.000000 2000.000000"
 preserveAspectRatio="xMidYMid meet">

<g transform="translate(0.000000,2000.000000) scale(0.100000,-0.100000)"
fill="#000000" stroke="none">
<path d="M9320 18305 c-314 -57 -557 -122 -822 -221 l-258 -96 -127 -111
c-214 -185 -350 -297 -361 -297 -5 0 -75 41 -155 90 l-145 90 -284 0 -285 0
-208 -66 -209 -65 -146 -139 c-127 -121 -171 -172 -337 -392 -180 -238 -196
-264 -264 -408 -40 -85 -78 -162 -85 -170 -6 -8 -19 -32 -27 -52 -14 -34 -20
-38 -53 -38 -24 0 -126 -37 -297 -107 l-259 -108 -273 -234 -274 -234 -151
-317 -151 -317 -40 -224 c-22 -123 -40 -242 -40 -264 -1 -57 120 -966 131
-992 5 -11 74 -121 154 -243 l145 -223 219 -198 c121 -109 223 -202 226 -207
12 -19 -17 -296 -63 -622 l-49 -335 13 -125 c8 -69 14 -138 14 -154 l1 -29
-24 23 c-20 18 -48 26 -134 38 l-109 16 -89 -40 c-104 -46 -204 -125 -365
-290 -118 -121 -177 -211 -297 -449 l-71 -140 -6 -180 -7 -180 101 -306 101
-306 178 -166 c97 -91 226 -215 287 -276 l110 -111 225 -99 c277 -123 429
-166 620 -177 l125 -7 180 -314 180 -314 178 -207 c98 -114 187 -214 197 -223
10 -9 22 -31 28 -50 5 -19 98 -152 211 -302 l203 -267 234 -169 c189 -138 305
-211 613 -390 376 -218 380 -220 638 -320 210 -82 291 -108 431 -140 95 -21
174 -40 176 -42 8 -9 16 -139 9 -139 -4 -1 -118 -9 -253 -20 -191 -15 -269
-25 -355 -47 l-110 -29 -71 -108 -72 -108 -105 -3 -106 -3 -196 -93 -197 -94
-165 -150 c-148 -134 -189 -179 -383 -420 -190 -238 -246 -316 -464 -655 -136
-211 -256 -400 -266 -420 -10 -19 -85 -197 -168 -395 -126 -304 -174 -434
-305 -835 -146 -450 -162 -505 -290 -1040 l-136 -565 -66 -465 c-36 -256 -68
-477 -71 -493 -5 -24 -3 -27 23 -27 l30 0 67 477 68 478 135 565 c130 543 141
584 294 1051 135 413 182 542 313 856 l154 371 253 393 c224 350 277 424 469
664 191 238 236 287 376 414 l159 145 193 93 194 94 74 -3 75 -3 -108 -160
c-408 -604 -358 -538 -528 -695 -85 -79 -157 -150 -160 -158 -3 -9 2 -23 12
-32 10 -10 140 -93 290 -185 l272 -168 223 -274 c123 -151 226 -280 230 -286
12 -22 -411 -391 -609 -532 -138 -98 -183 -135 -183 -151 0 -11 70 -173 155
-360 l156 -339 149 -530 148 -530 101 -577 c56 -317 101 -586 101 -597 0 -17
6 -21 31 -21 31 0 31 0 24 43 -4 23 -51 296 -105 607 l-99 565 -145 520 -146
520 -149 330 c-83 182 -153 337 -156 346 -5 13 37 48 182 153 229 165 608 503
608 542 0 16 -77 118 -239 318 l-238 295 -269 167 c-148 91 -269 169 -269 173
0 3 63 65 141 136 l140 130 237 350 c130 193 272 404 317 470 45 66 86 128 91
138 20 36 213 74 467 92 126 9 231 14 234 11 10 -9 16 -136 7 -136 -5 0 -31
-18 -57 -40 -61 -50 -170 -84 -365 -114 l-143 -23 -30 58 c-33 67 -39 59 76
102 59 22 95 28 227 35 160 8 187 15 174 48 -6 15 -21 16 -174 10 -158 -6
-172 -9 -261 -42 -125 -46 -131 -50 -131 -81 0 -14 123 -269 274 -567 l274
-541 46 -260 c25 -143 53 -294 61 -335 8 -41 37 -199 65 -350 l50 -275 30
-545 30 -545 0 -1152 0 -1153 30 0 31 0 -3 1248 c-4 1227 -4 1254 -32 1706
-27 457 -28 461 -81 750 -29 160 -52 292 -50 294 1 1 164 -74 362 -168 198
-93 370 -170 382 -170 12 0 126 72 254 160 127 87 233 157 235 156 2 -2 -36
-102 -83 -222 -462 -1166 -715 -2088 -819 -2984 -24 -206 -56 -595 -56 -687
l0 -83 486 0 486 0 -2 1157 -3 1158 32 545 32 545 59 330 c33 182 64 350 70
375 5 25 28 151 51 280 35 199 47 246 76 305 19 39 47 82 61 97 14 15 28 42
31 60 3 18 99 216 214 440 114 224 207 416 207 426 0 29 -28 48 -130 86 -90
33 -104 36 -262 42 -153 6 -168 5 -174 -10 -13 -33 14 -40 174 -48 132 -7 168
-13 227 -35 115 -43 109 -35 76 -102 l-30 -58 -143 23 c-195 30 -304 64 -365
114 -26 22 -52 40 -57 40 -9 0 -3 127 7 136 3 3 106 -2 229 -10 160 -12 256
-24 340 -43 l117 -27 325 -486 326 -485 144 -135 c79 -74 145 -137 145 -140 1
-3 -120 -81 -268 -174 l-270 -168 -188 -231 c-290 -356 -293 -360 -293 -382 1
-31 412 -398 594 -530 84 -60 165 -119 180 -130 l28 -21 -152 -334 c-84 -184
-161 -362 -171 -395 -11 -33 -80 -278 -154 -545 -129 -465 -137 -500 -199
-860 -85 -487 -136 -789 -136 -801 0 -5 13 -9 29 -9 27 0 29 3 36 47 3 27 51
300 105 608 l98 560 145 515 145 515 156 343 c86 188 156 353 156 366 0 20
-33 48 -185 156 -129 92 -250 190 -395 322 -116 104 -210 193 -210 198 0 5
102 134 226 287 l226 278 281 174 c155 96 285 179 289 185 4 6 8 16 8 23 0 6
-71 77 -157 158 l-158 147 -242 357 -242 356 69 3 c63 3 76 -1 170 -43 260
-117 289 -135 460 -291 143 -130 185 -177 370 -409 178 -224 244 -319 455
-646 136 -211 255 -400 265 -419 9 -19 83 -193 163 -385 122 -291 173 -432
302 -825 147 -450 162 -504 290 -1035 l135 -560 70 -483 c38 -266 70 -488 70
-493 0 -5 14 -9 31 -9 28 0 30 2 25 28 -3 15 -35 236 -71 492 l-66 465 -136
565 c-128 535 -144 590 -290 1040 -131 401 -179 531 -305 835 -83 198 -158
376 -168 395 -10 20 -130 209 -266 420 -218 339 -274 417 -464 655 -194 241
-235 286 -383 420 l-165 150 -197 94 -196 93 -106 3 -105 3 -72 108 -71 108
-110 29 c-86 22 -164 32 -355 47 -135 11 -249 19 -253 20 -7 0 1 130 9 139 2
2 81 21 176 42 140 32 221 58 431 140 258 100 262 102 638 320 308 179 424
252 613 390 l234 169 203 267 c113 150 206 283 211 302 6 19 18 41 28 50 10 9
99 109 197 223 l178 207 180 314 180 314 125 7 c191 11 343 54 620 177 l225
99 110 111 c61 61 190 185 287 276 l178 166 101 306 101 306 -7 180 -6 180
-71 140 c-120 238 -179 328 -297 449 -161 165 -261 244 -365 290 l-89 40 -109
-16 c-86 -12 -114 -20 -134 -38 l-24 -23 1 29 c0 16 6 85 14 154 l13 125 -49
335 c-46 326 -75 603 -63 622 3 5 105 98 226 207 l219 198 145 223 c80 122
149 232 154 243 11 26 132 935 131 992 0 22 -18 141 -40 264 l-40 224 -151
317 -151 317 -274 234 -273 234 -259 108 c-171 70 -273 107 -297 107 -33 0
-39 4 -53 38 -8 20 -21 44 -27 52 -7 8 -45 85 -85 170 -68 144 -84 170 -264
408 -166 220 -210 271 -337 392 l-146 139 -209 65 -208 66 -285 0 -284 0 -145
-90 c-80 -49 -150 -90 -155 -90 -11 0 -147 112 -361 297 l-127 111 -258 96
c-271 101 -512 166 -827 221 -167 30 -212 30 -375 0z m355 -109 c295 -51 554
-120 810 -217 l240 -90 143 -125 c79 -68 201 -170 270 -226 70 -55 162 -132
205 -171 68 -61 77 -66 77 -46 0 13 -18 53 -40 89 -22 36 -40 68 -40 72 0 4
59 43 130 87 l130 81 254 0 253 0 193 -60 192 -59 124 -116 c146 -138 154
-147 361 -425 146 -195 167 -230 235 -375 42 -88 74 -162 72 -163 -1 -2 -77 2
-169 8 -92 6 -168 10 -171 8 -4 -5 452 -137 511 -148 22 -4 146 -52 276 -107
l236 -99 255 -218 255 -219 142 -298 142 -297 41 -228 40 -228 -62 -475 -62
-476 -144 -220 -144 -220 -210 -187 c-115 -104 -213 -188 -218 -188 -5 0 -44
20 -88 45 -90 52 -102 53 -246 25 -57 -11 -113 -20 -126 -20 -37 0 -231 111
-238 136 -7 27 2 59 141 494 65 201 135 421 156 490 l39 125 -31 260 c-17 143
-33 270 -35 283 -7 34 -24 26 -24 -12 0 -19 -14 -92 -31 -163 -17 -70 -36
-159 -44 -198 -36 -192 -279 -1164 -300 -1206 -20 -37 -62 -65 -118 -80 -45
-11 -51 -10 -171 40 -69 28 -136 51 -150 51 -15 0 -85 -16 -157 -35 l-131 -34
-143 84 c-82 49 -153 85 -169 85 -14 0 -112 -43 -217 -96 -178 -89 -192 -94
-204 -77 -7 10 -36 47 -64 82 -65 81 -65 -30 -6 1010 9 155 15 285 13 287 -3
2 -53 -260 -112 -582 -59 -323 -112 -597 -118 -610 -8 -16 -48 -43 -120 -79
l-108 -56 -119 71 c-66 38 -131 70 -144 70 -13 0 -32 -10 -43 -21 -10 -12 -53
-50 -95 -85 l-76 -64 -145 80 c-83 46 -157 80 -173 80 -15 0 -69 -22 -119 -49
-97 -53 -190 -91 -219 -91 -21 0 -99 71 -128 118 -27 43 -70 65 -102 53 -13
-5 -63 -51 -111 -103 l-86 -93 -48 54 c-40 46 -54 54 -82 54 -28 0 -42 -8 -82
-54 l-48 -54 -86 93 c-48 52 -98 98 -111 103 -29 11 -67 -5 -81 -35 -14 -30
-111 -139 -135 -152 -26 -15 -50 -6 -114 39 -68 49 -208 117 -239 117 -15 0
-92 -36 -172 -80 l-145 -80 -76 64 c-42 35 -85 73 -95 85 -11 11 -30 21 -43
21 -13 0 -78 -32 -144 -70 l-119 -71 -109 56 c-82 42 -112 62 -120 83 -6 15
-58 286 -117 602 -58 316 -107 577 -110 580 -3 3 -3 -31 1 -75 10 -132 55
-1015 55 -1086 0 -66 0 -67 -61 -145 -33 -44 -64 -80 -69 -82 -4 -2 -94 40
-199 92 -105 53 -199 96 -209 96 -9 0 -83 -39 -164 -86 l-147 -85 -134 35
c-74 20 -144 36 -154 36 -11 0 -76 -23 -144 -51 -121 -50 -124 -51 -175 -40
-74 17 -115 61 -142 154 -50 172 -249 985 -277 1132 -8 39 -27 128 -44 198
-17 71 -31 141 -31 157 0 36 -18 49 -24 18 -3 -13 -18 -140 -35 -283 l-31
-260 156 -490 c188 -591 190 -599 176 -628 -6 -13 -53 -44 -118 -79 l-109 -56
-120 24 c-66 13 -133 24 -149 24 -17 0 -63 -20 -108 -46 -44 -25 -85 -44 -93
-42 -8 2 -107 86 -221 188 l-207 185 -105 160 c-57 88 -122 187 -143 220 l-38
60 -62 477 -63 477 41 228 41 228 142 297 143 298 254 217 254 218 242 102
c133 56 249 102 257 102 22 1 521 143 517 148 -2 2 -72 -2 -155 -8 -82 -6
-157 -9 -166 -7 -12 2 2 39 63 169 72 153 91 183 246 390 159 212 310 382 428
481 41 35 74 49 234 99 l187 59 258 0 258 0 130 -81 c71 -44 130 -83 130 -87
0 -4 -18 -36 -40 -72 -22 -36 -40 -76 -40 -89 0 -20 9 -15 78 46 42 39 134
116 204 171 69 56 191 158 270 226 l143 125 240 90 c251 95 507 164 800 216
167 29 173 29 340 1z m-1852 -5206 c7 0 64 29 126 65 63 36 116 65 119 65 2 0
36 -26 74 -57 97 -81 130 -103 152 -103 10 0 84 36 164 80 80 44 152 80 160
80 8 0 85 -36 170 -80 85 -44 168 -80 183 -80 22 0 44 19 110 91 l83 90 95
-101 c117 -123 129 -126 202 -47 l49 52 49 -52 c73 -79 85 -76 202 47 l95 101
83 -90 c66 -72 88 -91 110 -91 15 0 98 36 183 80 85 44 162 80 170 80 8 0 80
-36 160 -80 80 -44 154 -80 164 -80 22 0 55 22 152 103 38 31 72 57 74 57 3 0
56 -29 119 -65 62 -36 119 -65 126 -65 7 0 80 34 162 75 l150 74 83 -106 c46
-58 93 -110 105 -114 18 -7 66 13 223 91 110 55 206 100 213 100 7 0 72 -36
146 -80 91 -54 145 -80 165 -80 17 0 89 16 160 35 l129 34 135 -55 135 -55 90
27 90 28 101 -54 c56 -30 131 -70 168 -90 l66 -35 142 28 141 28 77 -44 c71
-41 78 -48 84 -83 12 -67 9 -144 -5 -144 -6 0 -84 15 -173 34 -115 25 -258 45
-505 70 -504 51 -823 58 -2124 45 -583 -5 -1323 -10 -1645 -10 -322 0 -1062 5
-1645 10 -1301 13 -1620 6 -2124 -45 -247 -25 -390 -45 -505 -70 -89 -19 -167
-34 -173 -34 -14 0 -17 77 -5 144 6 35 13 42 84 83 l77 44 141 -28 142 -28 66
35 c37 20 112 60 168 90 l101 54 90 -28 90 -27 135 55 135 55 129 -34 c71 -19
143 -35 160 -35 20 0 74 26 165 80 74 44 139 80 146 80 7 0 103 -45 213 -100
157 -78 205 -98 223 -91 12 4 59 56 105 114 l83 106 150 -74 c82 -41 155 -75
162 -75z m682 -390 c417 -8 1290 -6 2845 9 1079 9 1508 -1 1955 -49 208 -22
356 -44 484 -71 101 -21 186 -41 189 -43 9 -10 91 -581 92 -640 0 -56 -25
-347 -36 -414 -4 -29 -159 -229 -672 -870 -91 -115 -99 -122 -184 -172 -108
-65 -392 -144 -867 -244 -383 -81 -434 -89 -901 -145 -272 -33 -673 -80 -890
-103 l-395 -43 -615 0 -615 0 -395 43 c-217 23 -618 70 -890 103 -467 56 -518
64 -901 145 -477 100 -765 181 -869 244 -89 55 -96 62 -182 170 -41 52 -208
263 -371 467 -213 268 -298 382 -301 405 -11 67 -36 358 -36 414 1 59 83 630
92 640 3 2 88 22 189 43 282 60 691 101 1154 115 389 12 1424 10 2120 -4z
m-3813 -1151 c69 -11 72 -12 142 -82 47 -47 159 -192 316 -412 134 -187 322
-450 419 -584 l175 -245 22 -100 c99 -452 264 -1214 264 -1223 0 -9 -200 49
-492 142 -26 8 -96 18 -155 21 -191 11 -340 57 -684 211 -83 37 -96 48 -366
305 l-279 267 -92 280 -93 280 7 163 6 163 74 142 c122 236 172 308 292 424
142 138 214 194 292 229 76 34 63 33 152 19z m9788 -19 c78 -35 150 -91 293
-230 117 -113 166 -185 299 -440 l66 -125 6 -160 6 -160 -92 -283 -92 -284
-146 -136 c-80 -74 -204 -193 -275 -264 l-130 -128 -205 -91 c-245 -108 -403
-154 -573 -163 -59 -3 -129 -13 -155 -21 -285 -91 -492 -151 -492 -142 0 12
266 1231 281 1290 6 21 61 109 126 200 64 89 142 198 173 242 319 453 553 770
616 832 67 67 76 72 131 81 87 14 93 14 163 -18z m-9048 -717 c278 -349 281
-352 364 -403 123 -75 377 -149 879 -256 382 -81 423 -87 925 -148 289 -36
705 -84 925 -107 l400 -43 585 0 585 0 400 43 c220 23 636 71 925 107 502 61
543 67 925 148 502 107 756 181 879 256 83 51 86 54 364 403 154 194 290 363
302 377 31 35 -6 -17 -355 -505 -169 -236 -311 -443 -316 -460 -18 -66 -299
-1363 -299 -1379 0 -30 26 -28 156 13 71 22 129 39 131 37 5 -5 -262 -126
-278 -126 -9 0 -21 -6 -27 -13 -6 -7 -54 -213 -106 -457 -53 -245 -100 -454
-105 -465 -5 -11 -21 -36 -37 -54 l-29 -34 -6 31 c-7 35 12 146 187 1085 l115
619 121 371 c66 205 121 381 121 392 3 35 -28 27 -134 -33 -57 -33 -123 -69
-145 -80 -23 -12 -181 -53 -350 -92 -275 -63 -346 -75 -644 -110 -184 -22
-524 -65 -755 -95 -1120 -145 -2130 -145 -3250 0 -231 30 -571 73 -755 95
-298 35 -369 47 -644 110 -169 39 -327 80 -350 92 -22 11 -88 47 -145 80 -106
60 -137 68 -134 33 0 -11 55 -187 121 -392 l121 -371 115 -619 c175 -939 194
-1050 187 -1085 l-6 -31 -29 34 c-16 18 -32 43 -37 54 -5 11 -52 220 -105 465
-52 244 -100 450 -106 457 -6 7 -18 13 -27 13 -16 0 -283 121 -278 126 2 2 60
-15 131 -37 130 -41 156 -43 156 -13 0 16 -281 1313 -299 1379 -5 17 -147 224
-316 460 -349 488 -386 540 -355 505 12 -14 148 -183 302 -377z m1049 -831
c262 -60 360 -77 580 -102 145 -17 489 -60 764 -95 635 -81 1157 -118 1685
-118 528 0 1050 37 1685 118 275 35 622 78 770 95 226 26 321 43 585 102 298
67 320 73 400 118 144 80 131 77 115 28 -137 -416 -206 -650 -235 -805 l-32
-172 -66 -10 c-37 -6 -191 -29 -342 -51 -480 -69 -1313 -190 -1365 -199 -80
-14 115 -12 960 8 418 10 764 15 768 11 5 -4 -1 -43 -12 -86 -16 -65 -101
-507 -101 -527 0 -3 -15 -8 -32 -12 -74 -15 -557 -130 -928 -221 -102 -25
-295 -72 -430 -104 -135 -32 -396 -95 -580 -140 -184 -44 -521 -126 -748 -181
l-412 -99 -648 156 c-356 86 -690 166 -742 179 -458 108 -1736 417 -1738 420
-2 2 -24 113 -48 247 -25 134 -52 269 -60 302 -8 32 -12 62 -7 67 4 4 377 -1
828 -11 451 -11 849 -19 885 -19 l65 1 -55 10 c-30 5 -439 64 -907 132 -469
67 -856 125 -859 129 -3 3 -21 84 -39 179 -25 131 -58 251 -135 493 -57 176
-105 326 -108 334 -3 8 46 -13 109 -46 113 -60 117 -61 430 -131z m-636 -1167
c127 -59 231 -108 232 -109 5 -5 154 -708 151 -712 -2 -2 -74 77 -159 175
-151 176 -157 184 -319 466 -91 158 -167 292 -169 297 -2 6 3 6 15 0 11 -5
123 -58 249 -117z m7426 -176 c-166 -288 -173 -298 -323 -471 -84 -97 -154
-175 -156 -174 -5 6 147 699 155 707 10 10 487 238 491 234 1 -1 -74 -135
-167 -296z m-6698 -574 c77 -14 172 -33 211 -41 63 -13 285 -53 866 -155 96
-16 254 -46 350 -64 96 -19 380 -71 630 -114 250 -44 551 -98 668 -121 l212
-41 238 45 c130 25 343 64 472 86 460 80 736 130 831 149 101 21 182 35 709
127 173 30 384 68 468 85 176 35 366 68 370 64 1 -1 -8 -63 -21 -137 -20 -113
-22 -145 -14 -201 l10 -67 -134 -176 c-74 -97 -152 -191 -174 -209 -22 -17
-130 -97 -240 -177 -151 -109 -290 -196 -569 -358 -362 -209 -374 -215 -625
-313 -246 -96 -268 -103 -566 -169 l-310 -70 -445 0 -445 0 -300 67 c-253 56
-326 76 -465 130 -91 35 -209 80 -263 100 -67 25 -214 103 -477 256 -310 179
-423 251 -608 385 l-227 165 -140 185 -141 184 10 70 c8 58 6 91 -12 194 -24
133 -25 146 -16 146 3 0 69 -11 147 -25z m2390 -1896 c86 -20 120 -21 547 -22
442 0 458 0 558 23 56 13 105 20 109 17 3 -4 9 -115 11 -247 3 -132 9 -237 13
-234 5 3 9 28 9 56 l0 50 46 -37 c58 -48 181 -87 364 -115 74 -11 135 -22 137
-24 1 -1 -76 -157 -173 -347 l-175 -344 -409 -332 -409 -332 -328 181 c-180
99 -382 211 -448 247 l-119 66 -219 429 c-120 236 -216 430 -214 432 2 2 63
13 137 25 188 30 308 68 362 114 l43 36 3 -43 c2 -24 7 -47 13 -52 5 -6 9 56
9 165 0 218 8 309 27 309 7 0 55 -10 106 -21z m1353 -1420 c-7 -19 -31 -132
-52 -253 l-39 -218 -320 -221 c-176 -121 -324 -220 -330 -220 -14 0 -737 343
-752 357 -13 12 -99 463 -90 472 3 3 193 -98 423 -225 229 -127 427 -231 439
-231 14 0 148 103 376 289 195 159 355 288 357 286 1 -1 -4 -17 -12 -36z"/>
<path d="M9280 15513 c1 -71 2 -257 1 -415 l-1 -288 -410 0 -410 0 0 -235 0
-235 410 0 410 0 0 -415 0 -415 240 0 240 0 0 413 0 412 410 -3 410 -4 0 241
0 241 -410 0 -410 0 0 415 0 415 -241 0 -241 0 2 -127z"/>
<path d="M11185 11964 c-230 -32 -476 -111 -640 -205 -104 -59 -215 -164 -265
-250 -22 -37 -40 -74 -40 -82 0 -15 -29 -27 -95 -42 -73 -16 -100 -66 -47 -86
38 -15 143 -5 188 17 33 16 42 29 62 82 87 230 493 425 964 463 277 22 559
-32 745 -142 77 -47 211 -180 266 -264 49 -78 115 -205 142 -277 9 -26 26 -55
36 -64 18 -17 19 -15 19 72 0 73 -6 104 -30 174 -16 47 -30 86 -30 88 0 1 14
2 30 2 67 0 150 54 150 97 0 20 -5 23 -38 23 -20 0 -53 -5 -72 -10 -19 -6 -55
-11 -80 -11 -38 -1 -49 4 -73 33 -191 221 -346 312 -626 369 -133 28 -417 34
-566 13z"/>
<path d="M7335 11953 c-165 -19 -345 -68 -450 -120 -103 -52 -209 -142 -322
-271 -24 -29 -35 -34 -73 -33 -25 0 -61 5 -80 11 -19 5 -52 10 -72 10 -33 0
-38 -3 -38 -23 0 -43 83 -97 150 -97 16 0 30 -2 30 -4 0 -2 -11 -34 -25 -70
-37 -98 -46 -152 -39 -218 7 -57 7 -59 24 -41 10 10 40 68 68 130 27 62 71
147 98 190 57 92 196 234 277 282 187 110 468 164 745 142 471 -38 877 -233
964 -463 20 -53 29 -66 62 -82 45 -22 150 -32 189 -17 52 20 25 70 -48 86 -66
15 -95 27 -95 42 0 35 -83 154 -153 219 -167 156 -469 275 -805 318 -110 14
-325 19 -407 9z"/>
<path d="M4883 10732 c-7 -4 -49 -129 -93 -278 -78 -265 -80 -273 -86 -411 -4
-77 -4 -152 0 -166 9 -37 176 -157 316 -227 63 -31 125 -60 136 -64 26 -8 58
19 47 39 -5 7 -66 44 -138 80 -71 37 -168 95 -214 128 l-83 62 6 140 c7 136 9
147 82 395 41 140 74 266 72 279 -3 27 -24 37 -45 23z"/>
<path d="M14197 10853 c-15 -14 -4 -61 67 -305 73 -246 75 -257 82 -393 l6
-140 -83 -62 c-46 -33 -142 -91 -214 -128 -71 -36 -133 -73 -138 -80 -11 -20
21 -47 47 -39 11 4 73 33 136 64 140 70 307 190 316 227 4 14 4 89 0 166 -6
138 -8 146 -86 411 -44 149 -86 274 -93 278 -15 10 -32 10 -40 1z"/>
<path d="M7127 4053 c-12 -11 -8 -72 18 -273 27 -214 31 -297 14 -350 -6 -19
-14 -62 -18 -95 -5 -33 -49 -199 -100 -370 l-91 -310 -60 -515 c-34 -283 -72
-666 -85 -850 -14 -184 -41 -546 -60 -805 -19 -258 -35 -473 -35 -477 0 -5 13
-8 29 -8 l28 0 7 88 c3 48 29 395 56 772 28 377 63 802 80 945 16 143 43 384
60 535 l31 275 101 354 102 354 83 109 c46 60 87 118 93 128 5 10 10 65 10
122 0 111 -12 147 -44 135 -14 -5 -16 -24 -16 -122 l0 -115 -52 -67 -53 -67
-7 149 c-6 140 -41 435 -54 456 -6 11 -28 12 -37 2z"/>
<path d="M11855 4051 c-12 -20 -47 -322 -53 -461 l-7 -144 -52 67 -53 67 0
115 c0 98 -2 117 -16 122 -32 12 -44 -24 -44 -135 0 -57 5 -112 10 -122 6 -10
47 -68 93 -128 l83 -109 102 -359 102 -359 60 -525 c45 -399 73 -706 115
-1280 30 -415 55 -765 55 -777 0 -19 6 -23 31 -23 l31 0 -7 62 c-3 35 -30 398
-60 808 -43 579 -68 860 -115 1260 l-60 515 -95 328 c-52 181 -95 341 -95 356
0 15 -7 50 -15 77 -21 71 -19 161 11 405 15 119 24 224 21 233 -7 17 -32 22
-42 7z"/>
</g>
</svg>
